<svg preserveAspectRatio="none" width="100%" height="100%" overflow="visible" style="display: block;" viewBox="0 0 443 500" fill="none" xmlns="http://www.w3.org/2000/svg">
<g id="Group 1">
<path id="Vector" d="M73.1376 293.339C91.4223 313.286 113.981 327.831 138.025 330.087C186.111 336.32 234.969 289.599 226.183 241.216C221.078 210.702 196.263 184.522 168.064 172.114C163.077 161.131 152.094 128.48 152.391 121C174.416 121.772 195.372 129.846 213.36 142.134C280.443 190.696 298.669 277.785 237.759 339.882C177.681 399.07 90.6506 386.306 37.518 325.397C16.4431 301.294 51.3503 269.89 73.0783 293.399L73.1376 293.339Z" fill="var(--fill-0, black)"/>
<path id="Vector_2" d="M292.588 148.654C230.135 212.294 139.899 272.194 176.172 372.642C186.145 406.658 136.99 422.865 124.998 389.383C82.1952 260.499 172.55 190.091 254.535 110.66C262.43 103.358 268.901 95.2839 279.587 93.3248C290.629 91.1877 318.115 90.4159 325.892 100.746C331.176 109.829 326.249 113.034 317.225 123.661C310.101 131.497 300.721 140.818 292.648 148.654H292.588Z" fill="var(--fill-0, black)"/>
<path id="Vector_3" d="M53.7494 330.904C54.0462 459.788 229.888 491.43 273.225 370.086C278.568 357.263 278.034 344.855 278.509 330.548C279.043 312.679 277.559 291.188 285.217 273.854C301.365 241.202 338.943 221.137 359.721 195.847C399.556 149.363 392.432 91.4221 367.498 38.0522C361.384 24.4574 367.439 8.48792 381.034 2.37323C394.629 -3.74146 410.539 2.37324 416.653 15.968C423.837 31.9968 430.189 48.7974 434.819 66.6072C457.2 147.107 426.746 218.168 362.512 267.027C352.419 275.813 340.546 285.964 334.194 296.116C329.979 321.287 336.094 361.656 323.746 388.727C281.358 511.911 120.773 538.566 37.8986 439.663C7.08772 402.44 -4.90416 351.742 1.80419 304.546L54.9367 307.692C53.9275 315.291 53.5119 323.365 53.8087 330.786L53.7494 330.904Z" fill="var(--fill-0, black)"/>
</g>
</svg>
