<svg preserveAspectRatio="none" width="100%" height="100%" overflow="visible" style="display: block;" viewBox="0 0 219 111" fill="none" xmlns="http://www.w3.org/2000/svg">
<g id="Group">
<path id="Vector" d="M218.237 81.142C216.761 80.8651 217.499 80.8651 218.237 80.3114V81.142Z" fill="var(--fill-0, white)"/>
<path id="Vector_2" d="M49.7778 80.3114C49.7778 81.6034 48.763 80.9574 48.1172 81.142V80.3114C48.1172 80.3114 49.4088 80.1268 49.7778 80.3114Z" fill="var(--fill-0, white)"/>
<path id="Subtract" d="M0.42098 9.25197C1.89707 2.79203 11.1227 -1.63766 17.3038 0.577168L133.546 38.4141L133.177 110.766C104.947 101.814 77.3619 91.0166 49.7774 80.3115C49.4082 80.1273 48.4863 80.496 48.1173 80.3115C37.3233 76.1587 18.3184 70.5293 9.09285 65.5459C6.32519 64.0694 2.35812 61.6699 1.25106 58.5322C0.0517336 55.21 -0.40932 13.128 0.42098 9.25197ZM31.3263 43.3047C35.6623 41.6436 32.8947 33.1538 27.1749 35.0918C23.1161 36.4765 24.8688 45.7959 31.3263 43.3047Z" fill="var(--fill-0, black)"/>
<path id="Vector_3" d="M41.9361 40.0751C48.2095 37.9526 48.394 46.7197 44.427 47.458C40.6445 48.104 37.8768 41.4594 41.9361 40.0751Z" fill="var(--fill-0, black)"/>
</g>
</svg>
