<svg preserveAspectRatio="none" width="100%" height="100%" overflow="visible" style="display: block;" viewBox="0 0 221 118" fill="none" xmlns="http://www.w3.org/2000/svg">
<g id="Group">
<path id="Subtract" d="M205.552 0.554542C210.826 -0.627841 217.828 -0.446068 219.647 6.46665C220.648 10.3784 220.557 74.231 219.647 78.9608C218.192 86.2374 208.552 94.2414 202.368 97.8797L202.277 98.0624C178.45 111.979 126.248 116.709 98.4198 117.527C97.9651 115.071 99.2386 104.43 97.8749 103.429C96.6926 102.61 73.7755 103.519 69.7733 103.429C67.8103 103.429 64.5362 104.479 64.8426 101.427C64.8491 101.427 64.8557 101.427 64.8622 101.428C94.6006 102.519 124.794 102.246 154.169 97.0614C164.901 95.1511 202.55 86.8742 205.552 74.868C205.907 73.4093 206.123 64.8799 206.102 54.9754C206.075 39.5253 205.47 20.631 203.914 20.0194C167.537 33.6631 126.43 38.2115 87.5975 38.3934C93.054 33.6636 90.2354 27.7511 90.8719 21.1112C122.247 20.6564 154.168 17.1085 184.452 9.19517C190.909 7.46695 200.277 1.737 205.552 0.554542Z" fill="var(--fill-0, black)"/>
<g id="Group_2">
<path id="Vector" d="M36.215 65.5897C41.6716 66.7722 70.2278 63.7706 68.1361 71.5021C66.4082 77.9601 22.1188 72.3207 36.215 65.5897Z" fill="var(--fill-0, black)"/>
<path id="Vector_2" d="M80.5953 66.6812C81.8685 66.2264 107.424 66.0445 108.697 66.6812L110.334 71.593C108.879 76.7777 84.9606 73.3212 79.504 74.3218C76.321 72.7755 78.0489 67.6818 80.5953 66.7722V66.6812Z" fill="var(--fill-0, black)"/>
<path id="Vector_3" d="M173.63 51.5821C187.726 48.0347 186.635 72.1388 172.539 67.7727C165.809 65.6807 167.264 53.1284 173.63 51.5821Z" fill="var(--fill-0, black)"/>
<path id="Vector_4" d="M3.7483 60.2232C5.11244 59.9503 31.0312 63.1339 28.1211 69.41C26.3931 73.0484 0.747173 69.1371 0.0196273 65.044C-0.253202 63.4977 2.38413 60.4961 3.83922 60.1322L3.7483 60.2232Z" fill="var(--fill-0, black)"/>
<path id="Vector_5" d="M147.62 58.0402C157.169 56.221 158.715 70.7744 150.894 72.1388C141.345 73.6851 140.345 59.4955 147.62 58.0402Z" fill="var(--fill-0, black)"/>
</g>
</g>
</svg>
