<svg preserveAspectRatio="none" width="100%" height="100%" overflow="visible" style="display: block;" viewBox="0 0 668 662" fill="none" xmlns="http://www.w3.org/2000/svg">
<g id="Group 1">
<path id="Vector" d="M478.371 293.575C503.717 284.099 525.656 268.635 536.758 247.189C560.558 204.944 535.553 142.137 487.403 132.15C457.199 125.448 423.627 138.643 401.556 160.136C389.505 160.644 355.117 158.589 348.294 155.511C357.263 135.38 372.602 118.977 390.737 106.906C460.9 62.9107 548.472 78.6521 583.217 158.394C615.575 236.276 571.126 312.18 494.743 338.613C464.499 349.119 448.465 304.987 478.404 293.653L478.371 293.575Z" fill="var(--fill-0, black)"/>
<path id="Vector_2" d="M340.927 140.102C275.914 201.125 183.295 257.271 215.415 359.122C223.983 393.52 174.205 407.695 163.597 373.749C126.12 243.217 219.289 176.577 304.465 100.578C312.653 93.606 319.45 85.8046 330.208 84.2858C341.328 82.6037 368.823 82.9607 376.169 93.6009C381.076 102.893 376.021 105.894 366.569 116.141C359.129 123.678 349.375 132.606 340.986 140.104L340.927 140.102Z" fill="var(--fill-0, black)"/>
<path id="Vector_3" d="M163.071 257.076C65.7668 341.592 156.833 495.308 276.971 448.731C290.165 444.387 299.202 435.868 310.336 426.87C324.203 415.588 339.49 400.41 357.612 394.866C392.872 385.727 432.629 401.031 465.349 400.21C526.566 399.943 565.738 356.66 589.804 302.893C596.09 289.376 612.131 283.513 625.647 289.798C639.164 296.083 644.944 312.118 638.659 325.635C631.231 341.552 622.676 357.345 612.232 372.496C565.972 442.075 492.298 465.511 413.328 448.873C400.081 446.984 384.636 444.642 372.802 446.476C351.004 459.75 324.465 490.777 295.91 499.14C175.001 547.639 49.8126 443.592 70.4303 316.215C78.4377 268.563 108.947 226.334 149.038 200.542L181.407 242.793C174.998 247 168.619 251.966 163.199 257.043L163.071 257.076Z" fill="var(--fill-0, black)"/>
</g>
</svg>
