<svg preserveAspectRatio="none" width="100%" height="100%" overflow="visible" style="display: block;" viewBox="0 0 105 75" fill="none" xmlns="http://www.w3.org/2000/svg">
<path id="Vector" d="M60.8262 0.524195C64.3319 -0.0295152 100.865 -0.30637 102.71 0.524195C104.832 1.44704 103.725 5.69217 103.91 7.53787C102.065 11.0447 63.8706 6.615 57.505 9.56812C47.0801 14.4592 62.3023 56.7257 41.9138 63.0011C38.6848 64.0163 31.3966 63.1857 29.5515 63.8317C27.2451 64.6623 24.8465 75.4596 13.13 74.5367C-7.90434 72.7833 -2.369 36.7922 20.5104 44.9133C28.9057 47.8664 26.2303 58.9406 39.4229 55.6183C53.6303 52.0192 37.2087 14.3669 52.6154 3.84646C53.8148 3.01589 59.5346 0.80105 60.8262 0.524195Z" fill="var(--fill-0, black)"/>
</svg>
