<svg preserveAspectRatio="none" width="100%" height="100%" overflow="visible" style="display: block;" viewBox="0 0 454 481" fill="none" xmlns="http://www.w3.org/2000/svg">
<g id="Group">
<path id="Vector" d="M227.65 12.4805C227.65 14.3006 227.563 16.1206 227.65 17.9407C225.917 18.6341 225.484 19.7608 227.65 19.5008C227.823 21.2342 228.256 30.7679 228.776 31.2012C232.588 32.4146 231.028 26.6944 234.234 25.741C235.793 25.3077 240.384 28.9478 240.038 23.4009C240.038 23.4876 241.511 24.8743 241.597 24.961C238.825 28.1678 243.676 29.9879 243.157 25.741C250.52 27.7344 257.364 20.6275 254.072 13.2605H259.53C258.403 21.2342 270.012 21.6675 269.665 14.0406C271.052 13.4339 272.178 14.8206 272.784 14.8206C269.059 22.6209 279.455 24.5276 278.242 17.1607C279.281 17.1607 280.321 17.1607 281.361 17.1607C279.195 21.4075 285.259 22.0142 286.818 18.7207C289.071 19.8475 291.236 20.7142 293.835 20.2808C292.189 26.5211 299.899 30.5946 303.971 26.5211C303.798 27.7344 304.231 29.2945 303.971 30.4212C303.971 30.5946 300.333 32.1546 304.751 31.9813C304.924 35.1881 304.404 38.1349 308.649 37.4415C302.585 39.9549 301.632 50.6154 308.303 52.2621C319.391 54.9489 323.116 41.1683 314.886 37.4415L317.225 35.8814C318.525 38.9149 327.535 39.8683 327.361 32.7613C330.393 35.4481 332.299 35.1014 335.158 35.8814C329.44 41.9483 336.024 48.9686 342.175 43.6817C342.175 45.3285 341.915 46.8885 342.955 48.3619C336.457 48.3619 332.126 55.3822 334.378 61.1891C337.497 69.3361 352.744 68.2961 351.531 56.1622L356.989 57.7223C351.185 64.6559 362.1 66.3027 362.013 71.7629C362.36 68.6427 362.273 69.5094 363.919 67.8627C364.179 70.5495 363.573 77.3098 367.038 76.4431C349.019 97.5039 390.255 114.491 394.327 90.4836C394.413 91.697 395.193 93.4304 395.886 94.3838C390.861 96.8972 395.193 101.577 398.225 97.5039C399.871 101.231 395.193 101.837 402.903 105.304C400.737 108.858 404.549 111.631 407.581 108.424C408.534 110.851 408.014 115.965 411.479 117.785C407.928 120.298 410.613 124.632 414.598 124.025C413.905 125.845 413.212 126.712 414.598 128.705C402.297 133.905 411.999 156.786 427.073 147.426C427.159 148.466 426.9 149.593 427.073 150.546C422.655 149.939 424.214 156.353 427.073 154.446C427.073 155.313 428.026 156.266 427.853 158.346C423.348 157.22 423.001 159.3 425.167 163.027C426.033 162.246 425.08 159.3 425.947 159.126C426.726 158.953 425.427 163.373 427.853 161.813C427.853 160.686 427.853 159.473 427.853 158.346C429.932 158.866 431.924 161.466 435.649 163.027C433.397 165.28 433.917 167.187 437.209 167.707C436.689 170.22 435.476 172.474 437.988 173.947C427.766 171.954 431.404 189.288 441.107 180.967C441.367 182.007 442.493 183.914 442.666 184.867C442.926 186.341 440.067 189.288 444.226 189.548C443.099 192.061 441.454 194.574 441.107 197.348C430.711 189.548 430.538 208.875 441.107 201.248C441.713 203.675 444.572 206.102 446.565 207.488C443.013 211.388 445.958 215.289 450.463 213.729C450.81 216.675 452.369 219.362 452.802 222.309C449.51 222.829 448.99 224.736 451.243 226.989C446.565 231.409 443.706 227.336 441.887 234.009C439.028 228.376 435.043 235.569 441.887 234.789V235.569C431.404 233.663 431.751 252.557 441.887 249.61C441.887 254.203 442.84 256.457 446.565 258.97L441.107 265.557C443.793 266.771 445.698 269.457 448.904 269.024V274.484C444.745 273.098 440.934 275.524 440.327 279.945C433.484 282.371 432.531 273.098 427.506 273.704C426.986 273.704 420.922 279.078 420.922 279.511C420.922 279.858 424.734 281.851 425.6 284.538L425.254 289.218C426.293 288.005 426.033 285.925 425.6 284.538C431.838 284.711 433.397 278.731 440.414 280.638C440.414 282.285 441.54 285.318 442.753 286.098C441.627 286.531 440.241 288.178 439.634 289.218C434.956 291.992 437.382 290.865 438.075 292.338C438.248 292.772 437.988 293.985 438.075 294.678C429.845 288.438 416.764 289.478 409.227 296.238L402.21 288.872C405.848 286.618 408.534 283.585 411.566 280.725C411.739 280.551 414.078 280.205 415.464 278.818C419.883 274.311 420.402 265.904 427.939 266.337C422.655 263.997 424.214 260.53 424.041 260.097C422.395 256.977 420.229 254.204 418.583 251.17L414.685 236.783C413.125 240.77 411.913 234.356 408.447 234.096C408.794 234.096 412.432 231.323 415.464 232.189C413.645 230.196 410.353 233.576 410.786 229.849C421.009 218.495 416.591 202.721 402.99 197.521C404.722 192.148 406.541 190.934 405.329 185.041C411.133 183.567 411.913 181.314 412.346 175.68C419.189 177.847 416.937 168.227 416.244 163.98C416.244 163.72 417.89 161.813 416.244 158.953C410.093 148.379 391.468 158.693 395.193 172.994C396.839 179.407 400.131 176.894 403.769 181.921C399.958 178.367 396.752 179.927 393.634 179.581C391.728 179.407 391.988 181.141 390.515 179.234C398.052 161.986 393.114 134.599 371.023 133.212C378.82 120.125 371.283 100.277 357.422 94.6438C353.697 93.0837 343.301 92.737 342.608 92.3037C341.915 91.8703 338.45 80.8632 335.245 77.1364C332.039 73.4096 322.683 68.9028 321.99 67.776C321.817 67.516 322.597 64.1359 321.21 62.3158C312.288 50.2687 299.293 54.9489 295.914 52.6088C295.308 52.1754 295.308 45.9352 294.788 44.4618C280.234 7.80031 231.288 25.0477 228.603 59.6291C228.343 59.6291 224.271 60.3224 223.925 60.4091C222.192 36.4881 200.101 15.3406 176.018 27.6478C168.741 31.3746 164.15 42.555 162.763 43.2484C162.59 43.2484 160.771 41.6017 159.645 42.4684C154.707 46.4552 153.234 51.8287 149.163 55.7289C146.39 49.7487 139.893 53.8222 138.68 53.3888C138.074 53.2155 139.72 51.8287 138.334 50.2687C145.091 46.3685 138.767 40.6483 134.435 46.8019C136.774 47.2352 136.168 48.3619 136.774 49.4886C135.302 54.5155 141.279 53.7355 135.215 57.289C128.025 55.3822 123.693 62.0558 125.079 68.9894C115.896 76.4431 110.699 87.9702 113.384 99.7573C109.919 99.4973 105.934 98.8906 102.469 99.4106L102.815 97.0705L101.689 99.4106C89.1276 101.491 80.1181 108.598 75.6133 120.471C68.1631 114.145 61.9257 118.391 54.9952 120.471C51.53 121.512 47.7183 121.685 44.513 123.592C31.9516 130.872 33.8574 152.713 47.9782 157.133C47.8916 157.74 48.6712 157.913 48.7579 158.693C45.206 160.426 48.5846 161.38 48.7579 161.813C49.2776 163.113 50.1439 166.32 50.3172 166.493C45.8124 169.267 41.8274 174.38 40.1814 179.321C39.575 181.227 41.0477 184.521 40.9611 184.781C40.7012 185.561 37.4093 185.821 37.0628 186.341C30.9986 195.528 28.573 217.369 31.605 228.029C31.0853 229.676 28.4863 229.936 26.927 230.369C25.9741 230.629 24.5013 230.196 23.4618 230.369C27.62 234.269 18.957 234.876 18.7837 228.029C19.7367 232.363 16.618 234.789 19.5634 238.17C19.65 232.796 22.5088 233.403 26.927 234.269C28.3997 234.616 31.6917 235.743 32.3847 237.389C30.6521 239.556 27.1003 241.983 25.3676 244.756C20.603 252.557 21.9024 255.504 20.6896 263.477C20.5163 264.431 17.3976 264.257 18.3506 267.377C18.4372 267.724 20.603 268.071 20.6896 268.937C20.8629 270.064 21.6425 280.031 21.0361 280.205C20.0832 280.551 19.5634 274.658 18.3506 277.518L23.0286 287.225C18.5238 287.311 16.1848 289.132 13.6725 292.685L8.21482 293.032L12.8929 293.378C9.51428 303.692 23.1153 314.353 31.605 308.199C33.1644 318.166 46.5921 336.367 57.3343 336.28C55.2551 350.061 59.1535 362.194 71.3684 369.821C69.5492 373.808 77.6058 384.035 83.0635 383.082C82.8902 390.709 84.1031 398.163 86.9619 405.27C87.395 406.396 93.4592 417.923 93.9789 418.53C98.0506 423.384 108.013 425.117 107.58 432.137C108.013 423.557 111.218 430.577 116.156 432.917C121.874 435.604 140.759 444.271 145.004 445.398C151.502 447.045 164.236 446.524 171.08 447.738C169.781 450.078 171.253 452.071 174.199 450.858C176.364 452.505 179.743 455.885 182.342 456.318C192.911 458.138 200.794 447.738 195.943 438.378L201.401 433.697C205.646 431.444 204.606 430.664 206.858 428.237C220.546 413.33 221.239 393.222 222.452 373.635C223.751 374.155 228.083 373.462 229.469 372.855C228.083 375.975 232.414 380.222 232.588 381.782C232.674 383.255 229.556 391.316 229.469 394.262C229.209 408.216 232.154 425.984 239.605 437.944C244.629 445.918 253.639 448.951 252.426 459.352C253.466 459.352 252.166 453.111 253.206 452.331C254.332 451.465 270.445 464.119 279.715 461.692C280.841 461.345 279.108 456.752 282.054 462.472C288.118 457.618 285.779 461.605 287.511 461.692C291.236 461.952 296.261 461.518 299.986 460.912C303.105 460.392 313.241 455.365 314.02 455.452C315.666 455.712 314.973 456.838 315.926 458.572C316.619 459.785 317.399 459.005 317.485 460.132C314.02 462.212 311.595 462.385 307.35 463.252C306.916 459.612 305.617 462.818 305.011 463.252C303.105 464.639 301.285 466.285 299.553 467.932C298.253 460.392 287.598 466.285 291.756 472.612C289.331 473.219 288.118 475.386 286.732 475.732C282.573 476.599 279.195 473.652 275.47 473.392C275.21 469.925 272.784 470.965 273.131 474.172C268.019 473.912 259.01 472.266 254.418 472.612C256.671 463.512 244.369 468.105 251.3 473.392C248.094 474.172 249.047 473.912 246.622 475.732C245.496 474.432 243.85 472.006 241.944 471.832C242.463 469.752 242.204 468.365 241.944 466.372C241.857 465.592 243.503 465.332 241.597 464.032C240.904 464.552 241.337 465.592 241.251 466.372C240.991 468.105 241.424 470.012 241.251 471.832C238.825 472.439 237.699 475.819 238.912 478.072C230.422 479.286 221.672 477.726 213.182 477.292C213.789 472.959 208.937 473.566 209.284 477.292C205.992 477.032 203.653 477.812 199.928 475.732C201.054 468.799 189.706 467.585 189.792 474.952C185.114 474.346 179.397 472.352 174.978 471.832C176.364 467.672 170.214 465.159 169.521 469.492L160.944 465.592C162.33 460.218 153.321 458.572 153.927 465.592C152.108 465.072 151.328 466.372 151.242 466.372C150.549 466.199 146.91 464.119 144.658 463.252C143.705 461.258 143.618 459.872 142.319 462.472C137.467 460.565 135.042 458.572 130.624 457.012C133.396 451.811 128.978 449.731 125.166 453.111C124.473 451.811 124.733 448.951 122.047 449.211C122.307 449.125 125.079 445.311 125.166 444.964C127.245 434.217 113.038 432.744 112.691 442.278L105.674 438.378C110.352 437.164 105.587 432.831 101.776 436.037C100.216 434.044 100.649 433.004 97.8773 432.137C100.216 428.497 96.8377 425.117 93.1993 427.457C92.2463 425.29 91.38 422.084 88.5212 422.777C93.1126 415.323 82.0239 408.13 77.6058 417.317C77.1726 414.89 78.9919 412.03 75.2668 412.636C86.7886 406.916 71.3684 387.329 63.5717 404.056C61.3193 400.156 61.6658 401.803 58.8936 400.936C61.0594 397.123 58.9802 395.736 54.9952 396.256C53.6092 392.529 52.6562 389.496 48.7579 388.456C51.53 384.035 47.1119 380.222 43.3001 383.775C42.5205 381.175 43.2135 378.488 40.9611 376.755C45.6392 375.802 45.3793 367.395 39.4018 367.395C43.3001 365.141 37.6692 360.028 35.5034 358.034L35.1569 354.914L34.8104 357.254C33.8574 356.561 33.0778 355.521 31.6917 355.694C43.9932 348.154 26.5805 329.347 17.6575 344.774C17.2244 342.607 17.4843 340.44 16.8779 337.753C19.7367 337.927 18.264 335.153 16.0982 335.413C15.2319 332.12 12.7196 327.44 11.4201 323.713C15.5784 323.453 14.1057 316.953 9.8608 319.813C9.42765 318.513 10.294 315.479 9.8608 314.006C9.8608 313.746 8.30145 313.313 6.74211 310.539V307.419C6.74211 306.639 6.74211 305.859 6.74211 305.079C6.74211 304.212 8.9945 302.219 5.18276 301.959C5.0095 299.619 4.57635 297.192 4.40309 294.938C4.40309 294.505 8.90787 289.825 2.06407 289.478C2.32396 288.525 1.8908 286.705 2.06407 285.578C13.4993 296.412 19.5634 268.504 4.40309 272.318L5.18276 268.417C18.0907 268.677 17.7442 249.003 2.84374 251.257V248.137C15.665 248.31 17.1378 230.629 7.52178 227.076L8.30145 225.516C14.1923 229.763 19.9966 214.509 8.30145 217.715C8.38808 217.369 8.30145 216.675 8.30145 216.155C18.4372 213.989 15.7517 194.314 2.06407 197.435C1.97743 196.741 2.23733 195.701 2.06407 195.094C4.1432 196.828 6.22232 194.574 5.96243 191.974C6.82874 192.321 8.73461 191.801 9.8608 191.974C10.3806 201.161 22.4222 204.542 27.7933 197.781C33.8574 190.068 26.4938 179.06 16.8779 181.834C17.8308 179.06 16.8779 175.507 16.8779 173.254C17.2244 173.254 18.3506 173.947 18.4372 174.034C18.6105 174.207 18.1773 175.507 18.7837 175.594C19.4768 175.247 19.0436 174.294 19.1303 174.034C19.7367 172.994 20.603 173.34 19.1303 171.694C19.0436 171.607 18.6105 171.694 18.3506 171.694H17.5709C17.5709 170.133 17.7442 169.093 16.7912 167.793C21.1228 167.273 23.4618 161.12 21.4693 157.653C25.281 158.26 24.2415 156.7 25.3676 153.753L27.7067 152.626L25.3676 152.973C26.0607 150.806 27.4468 147.339 26.1473 145.172C29.6125 144.392 29.6992 137.546 24.588 138.932C26.1473 135.292 25.8874 133.905 29.266 131.132C34.0307 134.859 40.6146 126.798 34.7237 123.332C35.6767 120.818 37.3226 120.558 38.6221 119.431C38.7087 120.818 40.8745 117.958 40.9611 117.871C43.2135 115.185 46.3322 112.064 45.6392 108.511C50.0573 110.591 54.1289 106.778 53.4359 102.271C54.2156 102.357 55.8616 102.444 56.5546 102.271C49.8841 121.165 74.8336 100.711 58.1139 100.711C58.807 99.324 59.1535 98.4573 58.8936 96.8105C63.9182 102.791 70.8486 98.9773 72.4946 106.171C71.8015 98.7173 75.7865 101.491 77.9523 99.1506C83.3234 93.4304 85.4025 83.4633 78.2988 78.0898C78.9919 78.0898 80.4646 76.0964 80.6378 75.7497C79.0785 77.9164 85.3159 83.03 83.7565 78.0898C83.3234 76.7031 84.6228 75.143 81.4175 75.7497C81.1576 75.7497 80.7245 75.663 80.6378 75.7497C81.3309 74.103 81.5042 72.1095 81.4175 70.2895C86.2688 71.0695 88.8677 64.9159 84.5362 62.4892C85.3159 60.6691 90.4271 58.1557 90.7736 57.809C93.2859 61.1891 94.9319 59.9757 97.7907 57.809C98.2238 58.849 98.3105 58.6757 99.35 58.589C90.8602 62.1425 94.672 71.8495 92.333 77.6564C97.5308 78.0031 104.548 79.3898 104.375 85.8034C103.248 77.3964 113.644 80.2565 114.857 71.4162C115.637 65.956 111.911 58.849 106.28 57.809C107.147 57.9823 106.973 57.2023 107.06 57.0289C107.753 55.9889 108.793 54.6022 107.06 53.9088C107.32 52.6954 107.753 50.962 107.84 50.0087C109.746 50.442 111.738 49.0553 111.738 46.8885C115.896 49.3153 115.81 48.6219 119.535 46.1085H123L121.874 44.5484C123.26 42.815 123.26 40.9083 123.433 40.6483C128.198 44.0284 132.356 39.6082 126.552 35.9681C127.158 35.6214 128.458 36.5748 128.111 34.408C130.537 43.7684 148.729 40.3883 143.705 28.1678H146.044C137.467 47.1486 173.246 42.2084 160.858 26.6077C164.583 27.2144 163.63 23.5743 163.976 21.1475C167.875 24.6143 173.506 23.1409 172.553 17.2474C180.523 20.4542 177.664 16.814 184.248 15.6873C184.508 18.8074 189.446 20.1075 190.485 16.4673C191.265 18.7207 191.178 20.4542 191.611 22.7076C193.95 21.4075 194.817 20.2808 197.416 18.8074C201.314 26.6944 200.361 17.9407 200.534 17.2474C201.141 15.0806 201.054 15.2539 202.094 13.3472C204.519 17.4207 207.292 15.774 209.111 12.5672C211.19 13.8672 212.749 15.6006 213.009 15.6873C212.316 13.7806 210.324 16.4673 211.883 18.0274C212.576 17.4207 213.442 16.7273 213.009 15.6873C218.207 18.0274 226.61 9.18704 226.264 3.2068C226.264 5.72023 225.397 14.6473 227.823 12.5672L227.65 12.4805Z" fill="var(--fill-0, #FEFEFC)"/>
<g id="Group_2">
<path id="Vector_2" d="M437.988 173.86C442.753 174.727 440.414 177.934 441.107 180.881C431.404 189.201 427.766 171.867 437.988 173.86Z" fill="var(--fill-0, black)"/>
<path id="Vector_3" d="M7.95493 225.256C4.48972 222.742 7.08863 219.622 7.95493 217.455C19.65 214.249 13.8458 229.503 7.95493 225.256Z" fill="var(--fill-0, black)"/>
<path id="Vector_4" d="M441.107 197.175C441.02 198.128 440.934 200.295 441.107 201.075C430.538 208.702 430.711 189.374 441.107 197.175Z" fill="var(--fill-0, black)"/>
<path id="Vector_5" d="M246.362 475.472C245.496 476.166 242.29 484.486 238.565 477.812C237.352 475.559 238.565 472.179 240.904 471.572C241.077 471.572 241.424 471.572 241.684 471.572C243.59 471.746 245.236 474.172 246.362 475.472Z" fill="var(--fill-0, #FEFEFC)"/>
<path id="Vector_6" d="M160.684 465.332C159.125 471.226 154.1 465.419 153.667 465.332C153.061 458.312 162.07 459.958 160.684 465.332Z" fill="var(--fill-0, black)"/>
<path id="Vector_7" d="M278.328 17.1607C279.541 24.5276 269.146 22.6209 272.871 14.8206C274.777 14.8206 277.549 12.3072 278.328 17.1607Z" fill="var(--fill-0, black)"/>
<path id="Vector_8" d="M48.498 388.196C47.4584 387.936 44.2531 390.969 42.2606 385.509C42.2606 385.422 43.3868 384.902 43.0403 383.602C46.852 380.049 51.1835 383.862 48.498 388.282V388.196Z" fill="var(--fill-0, black)"/>
<path id="Vector_9" d="M130.277 456.752C127.505 455.798 128.631 460.218 124.819 452.851C128.631 449.385 133.049 451.551 130.277 456.752Z" fill="var(--fill-0, black)"/>
<path id="Vector_10" d="M97.5308 431.791C96.1447 431.357 94.8452 434.044 92.8527 431.444C91.2068 429.277 92.9394 427.37 92.8527 427.197C96.4912 424.857 99.8698 428.237 97.5308 431.877V431.791Z" fill="var(--fill-0, black)"/>
<path id="Vector_11" d="M190.225 16.3807C189.186 20.0208 184.248 18.7207 183.988 15.6006C184.508 15.514 184.854 15.6006 184.768 14.8206C185.547 13.5205 186.5 12.0471 188.233 12.4805C190.312 13.6939 189.706 14.9939 190.139 16.3807H190.225Z" fill="var(--fill-0, black)"/>
<path id="Vector_12" d="M174.718 471.572C174.718 471.572 168.221 475.559 169.261 469.232C169.954 464.899 176.105 467.412 174.718 471.572Z" fill="var(--fill-0, black)"/>
<path id="Vector_13" d="M254.159 472.352C253.119 472.352 252.079 472.872 251.04 473.132C244.109 467.845 256.411 463.252 254.159 472.352Z" fill="var(--fill-0, black)"/>
<path id="Vector_14" d="M123.26 40.5616C124.213 39.1749 121.527 38.3082 126.379 35.8814C132.183 39.5216 128.025 43.9418 123.26 40.5616Z" fill="var(--fill-0, black)"/>
<path id="Vector_15" d="M4.05656 294.678C-2.87387 294.678 1.0245 291.558 1.71754 289.218C8.47471 289.565 4.05656 294.245 4.05656 294.678Z" fill="var(--fill-0, black)"/>
<path id="Vector_16" d="M407.668 108.338C404.636 111.544 400.824 108.771 402.99 105.218C404.116 105.738 405.069 101.491 407.668 108.338Z" fill="var(--fill-0, black)"/>
<path id="Vector_17" d="M286.905 18.7208C285.345 22.0142 279.281 21.4075 281.447 17.1607C282.054 17.1607 282.313 17.074 282.227 16.3807L284.912 15.6006C285.952 15.9473 286.558 18.5474 286.818 18.7208H286.905Z" fill="var(--fill-0, black)"/>
<path id="Vector_18" d="M437.209 167.62C433.917 167.1 433.397 165.193 435.649 162.94C436.689 163.373 438.681 162.246 439.548 164.067C440.414 166.06 437.295 167.36 437.209 167.533V167.62Z" fill="var(--fill-0, black)"/>
<path id="Vector_19" d="M105.328 438.031C99.7832 439.504 102.469 436.991 101.429 435.691C105.241 432.484 110.006 436.817 105.328 438.031Z" fill="var(--fill-0, black)"/>
<path id="Vector_20" d="M11.0736 323.453C10.7271 322.586 10.0341 321.113 9.51428 319.553C13.7592 316.693 15.2319 323.193 11.0736 323.453Z" fill="var(--fill-0, black)"/>
<path id="Vector_21" d="M444.226 189.374C440.067 189.114 442.926 186.167 442.666 184.694C449.857 184.954 444.832 187.988 444.226 189.374Z" fill="var(--fill-0, black)"/>
<path id="Vector_22" d="M398.312 97.4172C395.279 101.491 390.948 96.8105 395.973 94.2971C396.839 95.4238 397.185 94.9038 398.312 97.4172Z" fill="var(--fill-0, black)"/>
<path id="Vector_23" d="M227.65 0C227.65 0 227.65 0.52002 227.65 0.78003V2.34009C227.65 3.90016 227.65 5.46022 227.65 7.02028V8.58034C227.65 9.8804 227.65 11.1804 227.65 12.4805C225.224 14.5606 226.177 5.63356 226.09 3.12012C226.09 2.08008 226.09 1.04004 226.09 0H227.65Z" fill="var(--fill-0, black)"/>
<path id="Vector_24" d="M212.836 477.032C212.836 477.032 211.103 477.206 208.937 477.032C208.591 473.306 213.442 472.699 212.836 477.032Z" fill="var(--fill-0, black)"/>
<path id="Vector_25" d="M452.802 222.136C452.889 223.002 454.188 224.129 453.582 225.602C453.062 226.902 451.329 226.642 451.243 226.729C448.99 224.476 449.51 222.569 452.802 222.049V222.136Z" fill="var(--fill-0, black)"/>
<path id="Vector_26" d="M200.361 17.1607C200.188 17.854 201.141 26.6077 197.242 18.7207C198.369 18.1141 198.888 16.9873 200.361 17.1607Z" fill="var(--fill-0, black)"/>
<path id="Vector_27" d="M441.887 233.836C441.887 233.836 441.887 234.356 441.887 234.616C435.043 235.396 439.028 228.202 441.887 233.836Z" fill="var(--fill-0, black)"/>
<path id="Vector_28" d="M275.21 473.132C275.21 473.132 275.21 473.999 272.871 473.912C272.524 470.706 274.95 469.665 275.21 473.132Z" fill="var(--fill-0, black)"/>
<path id="Vector_29" d="M6.39559 304.732C4.1432 305.079 4.92287 303.345 4.83624 301.612C8.64798 301.872 6.39559 303.865 6.39559 304.732Z" fill="var(--fill-0, black)"/>
<path id="Vector_30" d="M121.701 44.4618L122.827 46.0218H119.362C119.795 45.7618 121.614 44.5485 121.701 44.4618Z" fill="var(--fill-0, black)"/>
<path id="Vector_31" d="M437.988 292.338C437.295 290.865 434.87 291.992 439.548 289.218C439.374 289.478 441.194 290.778 437.988 292.338Z" fill="var(--fill-0, black)"/>
<path id="Vector_32" d="M16.5313 337.494C16.5313 337.494 16.0116 336.02 15.7517 335.153C17.9174 334.893 19.3901 337.667 16.5313 337.494Z" fill="var(--fill-0, #FEFEFC)"/>
<path id="Vector_33" d="M144.311 462.992C143.705 462.732 143.358 464.119 142.405 463.772C141.712 463.512 142.145 462.212 142.059 462.212C143.358 459.612 143.445 460.998 144.398 462.992H144.311Z" fill="var(--fill-0, black)"/>
<path id="Vector_34" d="M307.09 462.992C307.09 462.992 306.57 464.639 304.751 462.992C305.357 462.559 306.657 459.352 307.09 462.992Z" fill="var(--fill-0, black)"/>
<path id="Vector_35" d="M106.887 56.9423C105.414 55.1222 106.627 55.0355 106.887 53.8222C108.619 54.5155 107.58 55.9022 106.887 56.9423Z" fill="var(--fill-0, black)"/>
<path id="Vector_36" d="M25.1078 153.579C25.1078 153.579 25.1078 153.059 25.1078 152.799L27.4468 152.453L25.1078 153.579Z" fill="var(--fill-0, black)"/>
<path id="Vector_37" d="M40.7012 117.698C40.7012 117.698 38.4488 120.645 38.3622 119.258C38.5355 119.085 37.7558 117.005 40.7012 117.698Z" fill="var(--fill-0, black)"/>
<path id="Vector_38" d="M304.751 31.9813C300.333 32.1546 303.884 30.5946 303.971 30.4212C305.011 30.4212 304.751 31.2012 304.751 31.9813Z" fill="var(--fill-0, black)"/>
<path id="Vector_39" d="M35.2435 357.774C35.2435 357.774 34.5505 356.994 34.4638 356.994L34.8104 354.654L35.1569 357.774H35.2435Z" fill="var(--fill-0, black)"/>
<path id="Vector_40" d="M18.0907 173.86C18.0907 173.86 16.8779 173.167 16.5313 173.08C16.5313 172.3 17.311 172.3 17.311 171.52H18.0907V173.86Z" fill="var(--fill-0, black)"/>
<path id="Vector_41" d="M227.65 19.5008C225.484 19.7608 225.917 18.6341 227.65 17.9407C227.65 18.4607 227.65 18.9808 227.65 19.5008Z" fill="var(--fill-0, black)"/>
<path id="Vector_42" d="M440.327 279.858C440.327 279.858 440.327 280.378 440.327 280.638C433.31 278.731 431.838 284.711 425.513 284.538C424.647 281.765 420.835 279.858 420.835 279.511C420.835 279.078 426.986 273.704 427.419 273.704C432.444 273.098 433.397 282.371 440.241 279.945L440.327 279.858Z" fill="var(--fill-0, black)"/>
<path id="Vector_43" d="M58.2006 378.055C65.6508 376.148 65.3909 385.335 61.3193 386.635C54.6487 388.716 53.2626 379.355 58.2006 378.055Z" fill="var(--fill-0, black)"/>
<path id="Vector_44" d="M49.6242 353.094C54.6487 352.661 56.2947 361.155 51.9632 362.455C45.4659 364.448 43.9932 353.614 49.6242 353.094Z" fill="var(--fill-0, black)"/>
<path id="Vector_45" d="M56.2947 102.097C57.3343 101.837 56.9877 101.317 57.0744 101.317C58.1139 101.231 57.7674 100.537 57.8541 100.537C74.5737 100.537 49.6242 120.992 56.2947 102.097Z" fill="var(--fill-0, black)"/>
<path id="Vector_46" d="M23.8949 314.093C26.4072 313.746 28.3997 316.953 31.2585 316.779C28.6596 317.386 26.7537 322.413 25.4543 322.586C20.1698 323.626 18.1773 314.786 23.8949 314.006V314.093Z" fill="var(--fill-0, black)"/>
<path id="Vector_47" d="M125.946 49.922C129.844 48.882 133.742 53.3888 130.624 56.1622C124.993 61.1891 120.055 51.4821 125.946 49.922Z" fill="var(--fill-0, black)"/>
<path id="Vector_48" d="M427.506 226.036C432.704 224.302 434.783 232.016 429.845 233.056C424.907 234.096 424.301 227.162 427.506 226.036Z" fill="var(--fill-0, black)"/>
<path id="Vector_49" d="M23.1153 328.133C27.0136 327.44 27.7933 333.507 24.6746 334.373C20.4297 335.587 19.3035 328.826 23.1153 328.133Z" fill="var(--fill-0, black)"/>
<path id="Vector_50" d="M26.6671 229.936V233.836C22.249 232.969 19.3901 232.363 19.3035 237.736C16.3581 234.356 19.4768 231.929 18.5238 227.596C18.6971 234.356 27.3601 233.836 23.2019 229.936C24.2415 229.763 25.8008 230.196 26.6671 229.936Z" fill="var(--fill-0, #FEFEFC)"/>
<path id="Vector_51" d="M138.074 49.922C138.074 49.922 136.514 49.2286 136.514 49.142C135.908 47.9286 136.514 46.8885 134.175 46.4552C138.507 40.3883 144.831 46.1085 138.074 49.922Z" fill="var(--fill-0, black)"/>
<path id="Vector_52" d="M350.405 81.0366C354.65 79.9099 354.91 85.4568 352.744 86.4968C349.712 87.9702 345.987 82.1633 350.405 81.0366Z" fill="var(--fill-0, black)"/>
<path id="Vector_53" d="M11.4201 308.632C14.8854 307.766 16.0982 313.313 12.9795 314.093C9.51428 314.959 8.30145 309.412 11.4201 308.632Z" fill="var(--fill-0, black)"/>
<path id="Vector_54" d="M264.641 462.992C268.193 463.512 266.547 469.579 263.861 469.232C260.916 468.885 261.782 462.559 264.641 462.992Z" fill="var(--fill-0, black)"/>
<path id="Vector_55" d="M212.056 452.851C211.97 454.238 213.442 455.712 212.836 457.532L210.497 453.632C210.843 450.858 211.536 447.911 211.623 445.051C213.962 446.091 212.143 451.031 211.97 452.851H212.056Z" fill="var(--fill-0, #FEFEFC)"/>
<path id="Vector_56" d="M197.676 459.872C201.314 458.312 202.613 462.559 200.015 463.772C197.242 465.072 194.903 461.085 197.676 459.872Z" fill="var(--fill-0, black)"/>
<path id="Vector_57" d="M322.337 53.8222C325.889 52.2621 326.755 57.1156 323.896 57.7223C321.037 58.329 320.171 54.7755 322.337 53.8222Z" fill="var(--fill-0, black)"/>
<path id="Vector_58" d="M82.3705 401.456C85.8357 401.109 85.5758 403.883 82.0239 404.143L83.9298 406.05C80.378 406.05 78.2122 401.803 82.3705 401.369V401.456Z" fill="var(--fill-0, black)"/>
<path id="Vector_59" d="M226.523 40.5616C228.256 42.035 227.13 52.8688 225.744 52.2621L226.523 40.5616Z" fill="var(--fill-0, #FEFEFC)"/>
<path id="Vector_60" d="M427.853 158.26C427.853 159.386 427.853 160.6 427.853 161.726C425.427 163.287 426.64 158.866 425.947 159.04C425.08 159.213 426.033 162.16 425.167 162.94C423.001 159.213 423.348 157.133 427.853 158.26Z" fill="var(--fill-0, black)"/>
<path id="Vector_61" d="M433.743 210.435C436.862 210.175 436.602 215.462 433.743 215.115C431.491 214.769 431.664 210.608 433.743 210.435Z" fill="var(--fill-0, black)"/>
<path id="Vector_62" d="M51.6167 348.414C51.7899 347.547 50.837 347.721 50.837 347.634C50.5771 343.387 48.498 344.947 50.0573 347.634H49.2776C45.8991 339.487 55.6017 343.3 51.6167 348.414Z" fill="var(--fill-0, black)"/>
<path id="Vector_63" d="M414.252 149.679C415.378 149.333 417.024 155.92 415.031 155.92C412.172 155.92 413.559 149.853 414.252 149.679Z" fill="var(--fill-0, black)"/>
<path id="Vector_64" d="M425.947 187.814C428.286 187.814 428.546 191.021 426.726 191.714C423.694 192.841 423.001 187.814 425.947 187.814Z" fill="var(--fill-0, black)"/>
<path id="Vector_65" d="M19.2169 238.516C18.8704 239.903 21.9024 245.45 18.4372 244.756C16.5313 244.41 18.0907 238.776 19.2169 238.516Z" fill="var(--fill-0, black)"/>
<path id="Vector_66" d="M34.8104 326.573C35.59 326.14 35.2435 329.52 36.7162 329.26C36.1098 331.167 32.7312 328.22 35.59 331.947C30.8254 332.467 32.9045 327.44 34.8104 326.486V326.573Z" fill="var(--fill-0, black)"/>
<path id="Vector_67" d="M78.4721 386.635C80.4646 386.635 81.5042 391.749 76.9127 390.536C74.5737 389.496 78.2988 386.635 78.4721 386.635Z" fill="var(--fill-0, black)"/>
<path id="Vector_68" d="M50.4038 376.495C53.6958 375.195 52.9161 380.222 51.1835 380.395C49.0177 380.655 48.4113 377.275 50.4038 376.495Z" fill="var(--fill-0, black)"/>
<path id="Vector_69" d="M439.201 221.356C442.147 221.009 440.327 225.516 439.981 226.816C438.335 226.816 437.642 221.529 439.201 221.356Z" fill="var(--fill-0, black)"/>
<path id="Vector_70" d="M172.379 447.391C174.459 448.171 173.766 450.425 173.939 450.511C170.993 451.725 169.521 449.731 170.82 447.391C171.34 447.391 172.033 447.305 172.379 447.391Z" fill="var(--fill-0, black)"/>
<path id="Vector_71" d="M415.031 178.54C417.37 178.54 417.63 181.834 415.811 182.441C412.692 183.481 413.039 178.627 415.031 178.54Z" fill="var(--fill-0, black)"/>
<path id="Vector_72" d="M418.93 229.156C419.709 229.156 422.048 232.276 419.709 233.056C416.417 234.096 416.244 228.983 418.93 229.156Z" fill="var(--fill-0, black)"/>
<path id="Vector_73" d="M71.455 388.196C76.6528 387.676 70.0689 395.736 69.5491 390.882C69.4625 390.102 71.0219 388.196 71.455 388.196Z" fill="var(--fill-0, black)"/>
<path id="Vector_74" d="M337.15 71.6762C337.15 71.6762 339.836 73.3229 339.836 73.5829C339.836 78.1765 331.26 71.9362 337.15 71.6762Z" fill="var(--fill-0, black)"/>
<path id="Vector_75" d="M396.319 129.399C396.319 132.172 395.973 132.259 399.005 132.865L394.76 133.992L396.319 129.312V129.399Z" fill="var(--fill-0, black)"/>
<path id="Vector_76" d="M210.15 23.4009C212.663 22.6209 213.875 25.8277 211.71 26.5211C209.197 27.3011 207.985 24.0943 210.15 23.4009Z" fill="var(--fill-0, black)"/>
<path id="Vector_77" d="M83.4966 77.9165C85.056 82.8566 78.8186 77.7431 80.3779 75.5764C80.3779 75.4897 80.8977 75.5764 81.1576 75.5764L83.4966 77.9165Z" fill="var(--fill-0, #FEFEFC)"/>
<path id="Vector_78" d="M153.234 452.071C155.833 451.638 154.62 456.838 153.234 456.752C151.848 456.752 151.502 452.331 153.234 452.071Z" fill="var(--fill-0, black)"/>
<path id="Vector_79" d="M212.836 457.532C210.583 459.005 210.67 457.965 208.937 456.405C208.244 454.325 210.497 453.805 210.497 453.718L212.836 457.618V457.532Z" fill="var(--fill-0, black)"/>
<path id="Vector_80" d="M116.676 52.2621C119.535 51.3087 119.448 54.9489 118.235 55.3822C115.896 56.2489 114.424 52.9554 116.676 52.2621Z" fill="var(--fill-0, black)"/>
<path id="Vector_81" d="M191.005 461.432L192.564 460.652L192.218 467.672C192.218 465.939 191.005 462.905 191.092 461.432H191.005Z" fill="var(--fill-0, #FEFEFC)"/>
<path id="Vector_82" d="M41.8274 342.174C43.9932 342.78 42.9536 347.634 42.6071 349.194C40.7012 348.067 42.4338 343.907 41.8274 342.174Z" fill="var(--fill-0, black)"/>
<path id="Vector_83" d="M425.167 172.3C427.852 171.26 428.112 174.9 426.726 175.42C424.041 176.46 423.781 172.82 425.167 172.3Z" fill="var(--fill-0, black)"/>
<path id="Vector_84" d="M62.8786 388.976C65.2176 390.536 63.9182 396.083 63.6583 398.336C62.0123 395.476 64.0914 392.096 62.8786 388.976Z" fill="var(--fill-0, #FEFEFC)"/>
<path id="Vector_85" d="M99.8698 91.957L102.209 89.6169C104.808 91.0036 101.516 96.5505 99.8698 91.957Z" fill="var(--fill-0, black)"/>
<path id="Vector_86" d="M398.658 113.018C399.351 112.931 401.863 116.398 399.438 116.918C397.185 117.438 396.925 113.278 398.658 113.018Z" fill="var(--fill-0, black)"/>
<path id="Vector_87" d="M427.853 199.515C427.073 199.861 426.12 203.761 423.954 200.641C424.561 197.088 427.073 199.515 427.853 199.515Z" fill="var(--fill-0, black)"/>
<path id="Vector_88" d="M43.3868 335.153C45.4659 335.413 44.3397 339.227 42.6071 339.054C40.2681 338.794 42.6071 335.067 43.3868 335.153Z" fill="var(--fill-0, black)"/>
<path id="Vector_89" d="M439.201 254.897L441.54 257.237C440.587 262.09 439.374 257.67 439.201 254.897Z" fill="var(--fill-0, black)"/>
<path id="Vector_90" d="M58.9802 368.695C61.4059 368.868 61.6658 371.988 59.7599 373.375C61.2326 370.862 54.1289 368.348 58.9802 368.695Z" fill="var(--fill-0, black)"/>
<path id="Vector_91" d="M432.184 255.677C434.09 255.244 434.783 258.364 432.964 258.797C431.058 259.23 430.365 256.11 432.184 255.677Z" fill="var(--fill-0, black)"/>
<path id="Vector_92" d="M212.836 457.532C213.442 455.712 211.97 454.238 212.056 452.851C214.915 452.938 215.521 455.798 212.836 457.532Z" fill="var(--fill-0, black)"/>
<path id="Vector_93" d="M210.93 428.671C213.616 428.931 213.529 432.831 211.71 434.131C210.757 432.051 212.403 430.577 210.93 428.671Z" fill="var(--fill-0, black)"/>
<path id="Vector_94" d="M86.2688 94.2971C88.1747 93.8638 88.8677 96.9839 87.0485 97.4172C85.1426 97.8506 84.4496 94.7305 86.2688 94.2971Z" fill="var(--fill-0, black)"/>
<path id="Vector_95" d="M102.209 89.6169L99.8698 91.957C99.0035 89.6169 99.6099 88.2302 102.209 89.6169Z" fill="var(--fill-0, black)"/>
<path id="Vector_96" d="M379.946 105.218C381.938 106.778 380.552 110.418 379.166 109.898C378.906 109.811 378.906 105.651 379.946 105.218Z" fill="var(--fill-0, black)"/>
<path id="Vector_97" d="M323.116 45.2418C326.062 45.2418 323.55 50.442 321.99 47.9286C321.557 47.1486 322.597 45.2418 323.116 45.2418Z" fill="var(--fill-0, black)"/>
<path id="Vector_98" d="M27.0136 202.635C29.1794 202.028 28.7462 205.582 27.7933 205.755C25.8874 206.188 25.1078 203.155 27.0136 202.635Z" fill="var(--fill-0, black)"/>
<path id="Vector_99" d="M71.455 379.615C73.794 379.442 73.794 382.475 72.2347 382.735C70.5887 382.995 69.9823 379.702 71.455 379.615Z" fill="var(--fill-0, black)"/>
<path id="Vector_100" d="M396.319 119.258C396.319 119.258 400.651 120.211 400.564 120.385C399.091 122.205 394.5 121.425 396.319 119.258Z" fill="var(--fill-0, black)"/>
<path id="Vector_101" d="M406.455 120.818L407.234 125.498C404.982 123.938 405.502 123.245 406.455 120.818Z" fill="var(--fill-0, black)"/>
<path id="Vector_102" d="M213.269 19.5008C216.907 20.3675 211.883 23.5743 210.583 21.4075C210.064 20.6275 213.182 19.4141 213.269 19.5008Z" fill="var(--fill-0, black)"/>
<path id="Vector_103" d="M380.726 124.718C383.498 124.545 380.119 131.305 378.04 125.845C381.679 128.185 379.859 124.718 380.726 124.718Z" fill="var(--fill-0, black)"/>
<path id="Vector_104" d="M51.1835 367.915C52.3097 367.395 53.7824 370.428 51.9632 371.035C49.1044 371.988 50.837 368.088 51.1835 367.915Z" fill="var(--fill-0, black)"/>
<path id="Vector_105" d="M143.878 455.192L145.091 457.185L142.319 459.092L141.972 456.405L143.878 455.192Z" fill="var(--fill-0, black)"/>
<path id="Vector_106" d="M381.505 132.519L385.837 133.645L381.505 134.079V132.519Z" fill="var(--fill-0, black)"/>
<path id="Vector_107" d="M328.574 62.3158C329.267 61.7958 331.26 62.9225 331.26 63.4425C331.26 65.7826 325.889 64.0492 328.574 62.3158Z" fill="var(--fill-0, black)"/>
<path id="Vector_108" d="M226.523 408.476C227.65 409.776 227.996 412.377 227.303 413.937C226.09 413.243 226.004 409.516 226.523 408.476Z" fill="var(--fill-0, #FEFEFC)"/>
<path id="Vector_109" d="M50.837 336.713V339.834C47.8916 340.354 47.8916 336.193 50.837 336.713Z" fill="var(--fill-0, #FEFEFC)"/>
<path id="Vector_110" d="M240.904 445.831H241.684C241.684 446.785 241.857 453.632 241.337 453.632C240.731 451.118 240.817 448.345 240.991 445.831H240.904Z" fill="var(--fill-0, #FEFEFC)"/>
<path id="Vector_111" d="M48.0648 113.018C50.7504 111.631 50.3172 116.138 48.8445 116.138C48.1514 116.138 46.9386 113.625 48.0648 113.018Z" fill="var(--fill-0, black)"/>
<path id="Vector_112" d="M19.2169 208.875C19.9099 208.875 21.1228 211.388 19.9966 211.995C17.311 213.382 17.7442 208.875 19.2169 208.875Z" fill="var(--fill-0, black)"/>
<path id="Vector_113" d="M389.302 104.438C389.302 104.438 390.515 105.478 391.208 105.564L389.302 108.251C388.522 107.471 387.483 104.698 389.302 104.351V104.438Z" fill="var(--fill-0, black)"/>
<path id="Vector_114" d="M425.947 208.875C427.766 208.875 426.813 212.949 425.167 211.995C424.041 211.388 425.167 208.875 425.947 208.875Z" fill="var(--fill-0, black)"/>
<path id="Vector_115" d="M425.947 203.415C428.372 203.155 426.64 207.228 425.167 206.535C424.214 206.102 425.773 203.415 425.947 203.415Z" fill="var(--fill-0, #FEFEFC)"/>
<path id="Vector_116" d="M295.828 37.4415C296.954 36.7481 298.773 39.8683 297.387 40.5616C297.214 40.6483 294.009 38.5682 295.828 37.4415Z" fill="var(--fill-0, black)"/>
<path id="Vector_117" d="M13.4126 292.338L12.633 293.118L7.95493 292.685L13.4126 292.338Z" fill="var(--fill-0, black)"/>
<path id="Vector_118" d="M358.202 71.6762C359.674 70.8095 359.848 75.143 358.981 75.5764C357.855 75.0563 357.162 72.2829 358.202 71.6762Z" fill="var(--fill-0, black)"/>
<path id="Vector_119" d="M425.167 235.396C426.813 234.443 427.766 238.603 425.947 238.516C425.167 238.516 424.041 236.003 425.167 235.396Z" fill="var(--fill-0, black)"/>
<path id="Vector_120" d="M425.947 165.28C427.766 165.107 427.333 168.14 426.726 169.18C424.387 169.093 426.9 166.84 425.947 165.28Z" fill="var(--fill-0, black)"/>
<path id="Vector_121" d="M241.684 471.572C241.684 471.572 241.077 471.572 240.904 471.572C241.077 469.752 240.644 467.845 240.904 466.112H241.684C241.944 468.105 242.204 469.492 241.684 471.572Z" fill="var(--fill-0, #FEFEFC)"/>
<path id="Vector_122" d="M27.0136 174.64C27.62 174.64 27.62 180.881 27.0136 180.881C26.3206 180.101 26.4938 174.64 27.0136 174.64Z" fill="var(--fill-0, black)"/>
<path id="Vector_123" d="M34.8104 179.321L35.59 180.881L34.8104 183.221C34.4638 181.834 33.1644 180.274 34.8104 179.321Z" fill="var(--fill-0, black)"/>
<path id="Vector_124" d="M42.6071 159.04C44.513 158.346 45.3793 160.6 44.1664 161.38C43.4734 161.813 41.3943 160.166 42.6071 159.04Z" fill="var(--fill-0, black)"/>
<path id="Vector_125" d="M358.202 91.177C360.108 90.4836 360.974 92.737 359.761 93.5171C359.068 93.9504 356.989 92.3037 358.202 91.177Z" fill="var(--fill-0, black)"/>
<path id="Vector_126" d="M107.32 87.2768C107.32 87.2768 110.439 86.9301 110.006 88.4035L107.32 89.5303C106.714 89.0102 106.714 87.6235 107.32 87.1902V87.2768Z" fill="var(--fill-0, black)"/>
<path id="Vector_127" d="M359.328 80.2565C359.328 80.2565 360.887 80.9499 360.887 81.0366C360.887 81.1232 360.887 81.7299 360.887 81.8166C359.241 84.2434 357.595 80.6899 357.769 80.2565C357.769 80.2565 358.895 80.2565 359.328 80.2565Z" fill="var(--fill-0, #FEFEFC)"/>
<path id="Vector_128" d="M19.2169 202.635C19.8233 203.328 19.9099 206.188 19.2169 206.535C17.6575 205.322 17.4843 203.935 19.2169 202.635Z" fill="var(--fill-0, black)"/>
<path id="Vector_129" d="M17.6575 253.337C19.4768 252.47 20.0832 256.63 18.4372 256.457C18.264 256.457 16.7046 253.77 17.6575 253.337Z" fill="var(--fill-0, black)"/>
<path id="Vector_130" d="M132.963 442.711C136.168 442.018 135.042 444.444 132.183 445.051C131.143 444.618 132.356 442.884 132.963 442.711Z" fill="var(--fill-0, black)"/>
<path id="Vector_131" d="M425.947 215.895C428.892 215.809 426.207 220.055 424.82 217.802C424.474 217.195 425.773 215.895 425.947 215.895Z" fill="var(--fill-0, black)"/>
<path id="Vector_132" d="M412.692 286.098C414.511 285.751 415.031 288.178 413.472 288.438C411.653 288.785 411.133 286.358 412.692 286.098Z" fill="var(--fill-0, black)"/>
<path id="Vector_133" d="M379.166 117.698C380.985 116.658 381.072 120.818 379.946 120.818C379.253 120.818 378.04 118.391 379.166 117.698Z" fill="var(--fill-0, black)"/>
<path id="Vector_134" d="M18.4372 222.136C19.0436 221.789 20.5163 225.342 19.2169 226.036C18.6105 226.382 17.1378 222.829 18.4372 222.136Z" fill="var(--fill-0, black)"/>
<path id="Vector_135" d="M234.32 435.691C236.659 434.131 235.966 437.944 235.1 438.031C233.541 438.204 233.541 436.211 234.32 435.691Z" fill="var(--fill-0, black)"/>
<path id="Vector_136" d="M82.3705 98.9773C84.2763 100.364 83.2368 101.144 82.3705 102.877C81.6774 102.531 81.764 99.6707 82.3705 98.9773Z" fill="var(--fill-0, black)"/>
<path id="Vector_137" d="M34.0307 144.999C34.5505 144.999 34.7237 148.899 34.0307 149.679C32.3847 148.726 33.7708 146.559 34.0307 144.999Z" fill="var(--fill-0, #FEFEFC)"/>
<path id="Vector_138" d="M172.726 23.4009C174.025 24.961 173.506 26.2611 172.726 28.0811C172.12 27.9945 172.033 23.7476 172.726 23.4009Z" fill="var(--fill-0, black)"/>
<path id="Vector_139" d="M165.709 26.5211C167.615 27.2144 163.63 30.2479 163.023 28.4278C163.023 28.2545 165.622 26.4344 165.709 26.5211Z" fill="var(--fill-0, black)"/>
<path id="Vector_140" d="M226.523 466.112C226.523 466.112 228.603 468.625 227.303 469.232C225.83 469.925 225.657 466.632 226.523 466.112Z" fill="var(--fill-0, black)"/>
<path id="Vector_141" d="M404.116 148.899L406.801 150.026C405.242 152.886 402.643 149.419 404.116 148.899Z" fill="var(--fill-0, black)"/>
<path id="Vector_142" d="M120.574 61.5358L124.04 61.8825C122.827 62.6625 120.401 63.9626 120.574 61.5358Z" fill="var(--fill-0, black)"/>
<path id="Vector_143" d="M51.9632 113.798C51.9632 113.798 54.2156 113.625 54.6487 114.145C53.3493 116.485 50.1439 114.925 51.9632 113.798Z" fill="var(--fill-0, black)"/>
<path id="Vector_144" d="M406.455 132.519C406.455 132.519 408.101 132.432 408.361 132.865C409.66 135.119 403.163 134.425 406.455 132.519Z" fill="var(--fill-0, black)"/>
<path id="Vector_145" d="M145.091 45.2418C144.744 45.8485 145.611 47.6686 144.744 48.3619C143.098 46.9752 142.665 45.3285 145.091 45.2418Z" fill="var(--fill-0, black)"/>
<path id="Vector_146" d="M227.65 461.432H226.09C226.09 460.478 225.83 459.092 226.437 458.312C227.65 459.178 227.736 459.958 227.563 461.432H227.65Z" fill="var(--fill-0, #FEFEFC)"/>
<path id="Vector_147" d="M358.202 86.4968C359.934 86.5835 359.761 88.4902 358.981 88.8369C357.509 89.6169 356.556 86.4101 358.202 86.4968Z" fill="var(--fill-0, black)"/>
<path id="Vector_148" d="M296.607 32.7613C297.3 33.628 299.293 34.5814 298.167 35.8814C297.041 36.3148 295.654 33.108 296.607 32.7613Z" fill="var(--fill-0, #FEFEFC)"/>
<path id="Vector_149" d="M18.4372 247.877C19.8233 247.183 20.0832 250.477 19.2169 250.997C18.8704 251.17 17.1378 248.57 18.4372 247.877Z" fill="var(--fill-0, black)"/>
<path id="Vector_150" d="M379.599 115.358V113.018C379.599 113.018 379.773 111.718 380.726 112.238C381.765 113.191 380.726 115.358 379.599 115.358Z" fill="var(--fill-0, #FEFEFC)"/>
<path id="Vector_151" d="M425.513 284.538C425.947 285.925 426.207 288.005 425.167 289.218L425.513 284.538Z" fill="var(--fill-0, black)"/>
<path id="Vector_152" d="M26.2339 157.48C27.5334 158.346 27.8799 159.993 27.0136 161.38C25.7142 161.466 26.2339 158.173 26.2339 157.48Z" fill="var(--fill-0, black)"/>
<path id="Vector_153" d="M145.091 45.2418C145.091 45.2418 144.831 43.8551 145.437 43.6817L147.343 47.1485C146.304 47.7552 146.477 45.1551 145.004 45.2418H145.091Z" fill="var(--fill-0, black)"/>
<path id="Vector_154" d="M71.455 110.678C72.4946 110.678 73.101 113.538 71.455 113.798C70.1556 113.971 70.762 110.764 71.455 110.678Z" fill="var(--fill-0, black)"/>
<path id="Vector_155" d="M226.523 36.6615C227.91 35.7948 228.169 39.1749 226.523 39.7816C225.917 39.1749 225.83 37.0948 226.523 36.6615Z" fill="var(--fill-0, black)"/>
<path id="Vector_156" d="M154.014 42.1217C154.88 42.555 154.62 45.9352 153.234 45.2418C151.935 44.5484 153.667 41.9483 154.014 42.1217Z" fill="var(--fill-0, black)"/>
<path id="Vector_157" d="M438.421 211.215C439.721 211.042 439.115 214.249 438.421 214.335C437.382 214.335 436.775 211.475 438.421 211.215Z" fill="var(--fill-0, black)"/>
<path id="Vector_158" d="M435.303 207.315C437.209 207.315 435.736 209.655 434.523 209.655C432.531 209.655 434.177 207.315 435.303 207.315Z" fill="var(--fill-0, #FEFEFC)"/>
<path id="Vector_159" d="M388.522 119.258C389.735 119.778 388.522 123.418 387.743 123.158C386.616 122.725 388.003 120.038 388.522 119.258Z" fill="var(--fill-0, #FEFEFC)"/>
<path id="Vector_160" d="M346.073 77.9164C347.806 78.6965 345.9 78.6098 345.294 78.6965L342.955 77.1364C342.955 76.183 343.734 76.4431 343.734 76.3564L346.073 77.9164Z" fill="var(--fill-0, #FEFEFC)"/>
<path id="Vector_161" d="M345.294 78.6965C343.561 79.0432 343.215 81.0366 342.955 77.1364L345.294 78.6965Z" fill="var(--fill-0, black)"/>
<path id="Vector_162" d="M395.539 139.539C396.925 139.712 398.658 139.106 399.784 139.886C399.784 140.232 395.193 141.012 395.539 139.539Z" fill="var(--fill-0, black)"/>
<path id="Vector_163" d="M346.073 77.9165L343.734 76.3564C345.034 74.2763 344.861 74.7097 346.073 77.9165Z" fill="var(--fill-0, black)"/>
<path id="Vector_164" d="M111.218 80.2565C114.51 79.2165 112.431 82.8566 110.439 81.8166C109.659 81.4699 110.958 80.3432 111.218 80.2565Z" fill="var(--fill-0, #FEFEFC)"/>
<path id="Vector_165" d="M34.0307 152.019C34.0307 152.019 36.1964 154.186 34.0307 155.14C33.4243 154.533 33.3376 152.366 34.0307 152.019Z" fill="var(--fill-0, black)"/>
<path id="Vector_166" d="M48.498 161.38C48.498 161.38 44.9461 159.993 48.498 158.26C48.6712 159.3 48.4113 160.34 48.498 161.38Z" fill="var(--fill-0, black)"/>
<path id="Vector_167" d="M23.8949 218.235C26.6671 217.802 27.4468 220.662 24.6746 219.795C24.4147 219.795 23.1153 218.669 23.8949 218.235Z" fill="var(--fill-0, black)"/>
<path id="Vector_168" d="M344.168 68.5561C345.294 68.2961 345.034 71.5029 344.168 71.6762C343.041 71.9362 343.301 68.7294 344.168 68.5561Z" fill="var(--fill-0, #FEFEFC)"/>
<path id="Vector_169" d="M64.438 373.375C67.1235 371.988 67.9032 375.282 65.2176 374.935C65.0444 374.935 63.6583 373.808 64.438 373.375Z" fill="var(--fill-0, black)"/>
<path id="Vector_170" d="M173.506 463.772C174.112 463.339 176.018 463.772 175.412 464.899C174.805 466.112 171.773 464.899 173.506 463.772Z" fill="var(--fill-0, black)"/>
<path id="Vector_171" d="M387.743 115.358C388.349 115.011 389.735 116.398 389.649 116.485C389.475 118.305 385.23 116.745 387.743 115.358Z" fill="var(--fill-0, black)"/>
<path id="Vector_172" d="M226.523 427.89C227.823 427.284 228.169 429.884 227.303 430.231C226.004 430.837 225.657 428.237 226.523 427.89Z" fill="var(--fill-0, black)"/>
<path id="Vector_173" d="M34.8104 165.28C34.8104 165.28 36.9761 167.447 34.8104 168.4C34.2039 167.793 34.1173 165.627 34.8104 165.28Z" fill="var(--fill-0, black)"/>
<path id="Vector_174" d="M50.837 339.834V336.714C52.9161 337.06 52.8295 339.487 50.837 339.834Z" fill="var(--fill-0, black)"/>
<path id="Vector_175" d="M212.836 15.6006C213.269 16.6407 212.316 17.334 211.71 17.9407C210.237 16.3807 212.143 13.6939 212.836 15.6006Z" fill="var(--fill-0, black)"/>
<path id="Vector_176" d="M26.2339 166.06C28.3131 166.06 27.5334 168.4 26.2339 169.18C25.4543 168.14 26.5805 167.273 26.2339 166.06Z" fill="var(--fill-0, black)"/>
<path id="Vector_177" d="M18.8704 173.86C18.8704 173.86 19.2169 175.074 18.5238 175.42C17.8308 175.42 18.264 174.034 18.1773 173.86V171.52C18.1773 171.52 18.8704 171.434 18.957 171.52V173.86H18.8704Z" fill="var(--fill-0, black)"/>
<path id="Vector_178" d="M102.209 98.9773C102.209 98.9773 101.689 98.9773 101.429 98.9773L102.555 96.6372L102.209 98.9773Z" fill="var(--fill-0, black)"/>
<path id="Vector_179" d="M426.726 176.98C427.333 177.24 427.333 179.581 426.726 180.101C425.687 180.967 425.86 176.547 426.726 176.98Z" fill="var(--fill-0, black)"/>
<path id="Vector_180" d="M94.0656 92.737C95.1051 92.3037 95.9714 94.3838 95.6249 95.0771C94.672 95.6838 93.5458 92.9104 94.0656 92.737Z" fill="var(--fill-0, black)"/>
<path id="Vector_181" d="M425.167 194.054C426.9 193.621 426.466 197.175 425.947 197.175C425.6 196.395 425.08 194.921 425.167 194.054Z" fill="var(--fill-0, black)"/>
<path id="Vector_182" d="M343.388 85.7168C345.12 85.2834 344.687 88.8369 344.168 88.8369C343.821 88.0569 343.301 86.5835 343.388 85.7168Z" fill="var(--fill-0, black)"/>
<path id="Vector_183" d="M427.853 199.515C427.853 199.515 430.451 197.695 431.751 199.168C430.798 200.121 428.805 199.168 427.853 199.515Z" fill="var(--fill-0, #FEFEFC)"/>
<path id="Vector_184" d="M27.0136 208.875C27.7933 209.135 27.7067 211.735 26.2339 211.215C25.0211 210.782 26.7537 208.788 27.0136 208.875Z" fill="var(--fill-0, black)"/>
<path id="Vector_185" d="M83.4966 77.9165L81.1576 75.5764C84.3629 74.9697 83.0635 76.5297 83.4966 77.9165Z" fill="var(--fill-0, black)"/>
<path id="Vector_186" d="M59.7599 111.458C59.7599 111.458 62.0123 113.278 61.3193 113.798C60.1931 114.231 58.5471 111.804 59.7599 111.458Z" fill="var(--fill-0, #FEFEFC)"/>
<path id="Vector_187" d="M41.8274 353.094C44.7729 352.661 41.5675 356.301 40.7012 354.221L41.8274 353.094Z" fill="var(--fill-0, black)"/>
<path id="Vector_188" d="M41.8274 356.994C41.8274 356.994 43.8199 359.074 42.6071 359.334C41.0478 359.681 41.0478 357.341 41.8274 356.994Z" fill="var(--fill-0, black)"/>
<path id="Vector_189" d="M241.684 445.831H240.904C240.904 444.184 239.518 443.924 241.251 442.711C242.03 443.491 241.597 444.791 241.597 445.831H241.684Z" fill="var(--fill-0, black)"/>
<path id="Vector_190" d="M131.403 41.3417C132.096 42.8151 133.049 43.4217 131.403 44.4618C130.797 43.7684 130.797 42.1217 131.403 41.3417Z" fill="var(--fill-0, black)"/>
<path id="Vector_191" d="M425.947 254.117C427.766 254.377 426.466 257.584 425.167 255.677C424.647 254.897 425.86 254.117 425.947 254.117Z" fill="var(--fill-0, black)"/>
<path id="Vector_192" d="M419.709 278.298C421.788 278.991 416.764 281.765 417.803 279.425C417.803 279.338 419.623 278.211 419.709 278.298Z" fill="var(--fill-0, black)"/>
<path id="Vector_193" d="M393.2 138.759C394.933 140.666 390.601 140.752 390.515 139.886L393.2 138.759Z" fill="var(--fill-0, black)"/>
<path id="Vector_194" d="M252.166 459.872C252.772 459.872 252.772 463.772 252.166 463.772C251.473 463.165 251.646 459.872 252.166 459.872Z" fill="var(--fill-0, black)"/>
<path id="Vector_195" d="M63.6583 368.695C64.6112 368.001 64.6979 371.642 63.6583 371.035C63.0519 370.688 62.9652 369.128 63.6583 368.695Z" fill="var(--fill-0, black)"/>
<path id="Vector_196" d="M284.912 22.6209C285.865 24.0943 285.259 25.8277 284.133 24.181C283.613 23.3143 284.393 23.2276 284.912 22.6209Z" fill="var(--fill-0, black)"/>
<path id="Vector_197" d="M226.523 470.792C227.476 470.099 227.563 473.739 226.523 473.132C225.917 472.786 225.83 471.226 226.523 470.792Z" fill="var(--fill-0, black)"/>
<path id="Vector_198" d="M204.693 24.181C205.905 23.7476 206.425 25.3077 205.472 25.741C204.346 26.2611 203.74 24.5276 204.693 24.181Z" fill="var(--fill-0, black)"/>
<path id="Vector_199" d="M436.862 265.817C438.855 264.777 439.114 267.204 437.642 267.377C437.642 267.377 436.082 266.251 436.862 265.817Z" fill="var(--fill-0, black)"/>
<path id="Vector_200" d="M387.743 125.498C388.955 125.065 389.475 126.625 388.522 127.058C387.396 127.578 386.79 125.845 387.743 125.498Z" fill="var(--fill-0, black)"/>
<path id="Vector_201" d="M432.531 265.817V266.597C431.491 266.684 431.578 268.071 430.192 266.251C430.711 265.557 431.751 265.817 432.531 265.904V265.817Z" fill="var(--fill-0, #FEFEFC)"/>
<path id="Vector_202" d="M211.71 466.112C212.922 465.679 213.442 467.239 212.489 467.672C211.363 468.192 210.757 466.459 211.71 466.112Z" fill="var(--fill-0, black)"/>
<path id="Vector_203" d="M226.523 28.8612C227.736 28.4278 228.256 29.9879 227.303 30.4212C226.177 30.9412 225.571 29.2078 226.523 28.8612Z" fill="var(--fill-0, black)"/>
<path id="Vector_204" d="M241.684 466.112H240.904C240.991 465.332 240.558 464.292 241.251 463.772C243.243 465.072 241.511 465.332 241.597 466.112H241.684Z" fill="var(--fill-0, black)"/>
<path id="Vector_205" d="M227.65 461.432C227.65 462.039 226.697 462.992 226.523 463.772C225.917 463.599 226.177 462.125 226.177 461.432H227.736H227.65Z" fill="var(--fill-0, black)"/>
<path id="Vector_206" d="M403.769 140.319V139.539C404.722 139.539 406.108 139.279 406.888 139.886C406.888 140.492 404.376 140.319 403.769 140.232V140.319Z" fill="var(--fill-0, black)"/>
<path id="Vector_207" d="M192.564 460.652L191.005 461.432C191.005 459.958 191.438 458.832 192.564 460.652Z" fill="var(--fill-0, black)"/>
<path id="Vector_208" d="M173.506 456.752C175.412 456.492 174.372 458.312 172.726 458.312C171.946 457.878 173.332 456.752 173.506 456.752Z" fill="var(--fill-0, black)"/>
<path id="Vector_209" d="M163.37 455.972C164.583 455.538 165.103 457.098 164.15 457.532C163.023 458.052 162.417 456.318 163.37 455.972Z" fill="var(--fill-0, black)"/>
<path id="Vector_210" d="M226.523 452.071C226.697 452.678 227.823 453.891 227.303 454.412C225.83 454.672 225.744 453.111 226.523 452.071Z" fill="var(--fill-0, black)"/>
<path id="Vector_211" d="M19.2169 281.418C20.1698 282.891 19.5634 284.625 18.4372 282.978C17.9174 282.111 18.6971 282.025 19.2169 281.418Z" fill="var(--fill-0, black)"/>
<path id="Vector_212" d="M226.523 449.731C227.736 449.298 228.256 450.858 227.303 451.291C226.177 451.811 225.571 450.078 226.523 449.731Z" fill="var(--fill-0, black)"/>
<path id="Vector_213" d="M323.896 41.3417C324.849 42.8151 324.243 44.5485 323.116 42.9017C322.597 42.035 323.376 41.9484 323.896 41.3417Z" fill="var(--fill-0, #FEFEFC)"/>
<path id="Vector_214" d="M401.777 149.679C403.25 149.419 403.336 150.979 402.556 152.019C402.383 151.413 401.257 150.199 401.777 149.679Z" fill="var(--fill-0, black)"/>
<path id="Vector_215" d="M50.837 347.634C50.837 347.634 51.7899 347.547 51.6167 348.414C50.6637 349.714 49.7974 348.847 49.2776 347.634H50.837Z" fill="var(--fill-0, black)"/>
<path id="Vector_216" d="M226.523 435.691C228.429 435.517 226.957 436.904 226.523 438.031C225.917 437.511 225.83 436.297 226.523 435.691Z" fill="var(--fill-0, black)"/>
<path id="Vector_217" d="M226.87 55.3822C227.043 54.4288 226.437 53.0421 227.217 52.2621C228.689 53.5621 226.87 55.2089 226.87 55.3822Z" fill="var(--fill-0, black)"/>
<path id="Vector_218" d="M396.319 155.92C396.925 155.92 396.925 159.04 396.319 159.04C395.713 159.04 395.713 155.92 396.319 155.92Z" fill="var(--fill-0, #FEFEFC)"/>
<path id="Vector_219" d="M330.913 54.6022C330.913 54.6022 332.472 55.7289 331.693 56.1622C329.7 57.2023 329.44 54.7755 330.913 54.6022Z" fill="var(--fill-0, black)"/>
<path id="Vector_220" d="M227.303 431.791C228.256 433.264 227.65 434.997 226.523 433.351C226.004 432.484 226.783 432.397 227.303 431.791Z" fill="var(--fill-0, black)"/>
<path id="Vector_221" d="M71.455 106.778C72.6678 106.344 73.1876 107.904 72.2347 108.338C71.1085 108.858 70.5021 107.124 71.455 106.778Z" fill="var(--fill-0, black)"/>
<path id="Vector_222" d="M217.947 417.837C219.42 417.577 219.506 419.137 218.727 420.177C218.553 419.57 217.427 418.357 217.947 417.837Z" fill="var(--fill-0, #FEFEFC)"/>
<path id="Vector_223" d="M350.405 76.3564C351.358 77.8298 350.751 79.5632 349.625 77.9164C349.105 77.0497 349.885 76.9631 350.405 76.3564Z" fill="var(--fill-0, #FEFEFC)"/>
<path id="Vector_224" d="M360.887 81.8166C360.887 81.8166 360.887 81.1232 360.887 81.0366V81.8166Z" fill="var(--fill-0, black)"/>
<path id="Vector_225" d="M34.8104 321.113C35.7633 322.586 35.1569 324.32 34.0307 322.673C33.5109 321.806 34.2906 321.72 34.8104 321.113Z" fill="var(--fill-0, black)"/>
<path id="Vector_226" d="M34.8104 173.86C35.4168 173.86 35.4168 176.98 34.8104 176.98C34.2039 176.98 34.2039 173.86 34.8104 173.86Z" fill="var(--fill-0, black)"/>
<path id="Vector_227" d="M26.2339 324.233C27.1869 323.54 27.2735 327.18 26.2339 326.573C25.6275 326.226 25.5409 324.666 26.2339 324.233Z" fill="var(--fill-0, black)"/>
<path id="Vector_228" d="M31.6917 187.034C32.9045 186.601 33.4243 188.161 32.4713 188.594C31.3451 189.114 30.7387 187.381 31.6917 187.034Z" fill="var(--fill-0, black)"/>
<path id="Vector_229" d="M425.947 181.661C425.947 181.661 426.466 182.354 426.293 182.787C425.86 185.647 424.907 181.661 425.947 181.661Z" fill="var(--fill-0, black)"/>
<path id="Vector_230" d="M18.4372 176.98C18.4372 176.98 18.957 177.674 18.7837 178.107C18.3506 180.967 17.3976 176.98 18.4372 176.98Z" fill="var(--fill-0, black)"/>
<path id="Vector_231" d="M359.328 80.2566C358.895 80.2566 357.769 80.2566 357.769 80.2566C358.462 78.5231 359.588 78.0898 359.328 80.2566Z" fill="var(--fill-0, black)"/>
<path id="Vector_232" d="M18.8704 173.86V171.52C20.3431 173.167 19.4768 172.82 18.8704 173.86Z" fill="var(--fill-0, black)"/>
<path id="Vector_233" d="M437.642 206.535L438.768 206.968L438.421 208.095L437.988 207.748L437.642 206.535Z" fill="var(--fill-0, black)"/>
<path id="Vector_234" d="M18.4372 215.115L19.65 215.549L19.2169 216.675L18.8704 216.329L18.4372 215.115Z" fill="var(--fill-0, black)"/>
<path id="Vector_235" d="M338.71 69.3361L339.49 70.1161V70.8962H338.71V69.3361Z" fill="var(--fill-0, black)"/>
<path id="Vector_236" d="M19.2169 218.235L19.65 219.449L18.4372 219.795L18.0907 219.449L19.2169 218.235Z" fill="var(--fill-0, black)"/>
<path id="Vector_237" d="M82.3705 104.438L82.717 105.651L81.5908 105.998L81.1576 105.651L82.3705 104.438Z" fill="var(--fill-0, black)"/>
<path id="Vector_238" d="M210.93 424.77H211.71C213.269 424.684 213.269 425.637 211.71 425.55L210.93 424.77Z" fill="var(--fill-0, black)"/>
<path id="Vector_239" d="M425.947 222.916L426.293 224.129L425.167 224.476L424.734 224.129L425.947 222.916Z" fill="var(--fill-0, black)"/>
<path id="Vector_240" d="M117.456 60.8424L118.235 61.5358V62.3158H117.456V60.8424Z" fill="var(--fill-0, black)"/>
<path id="Vector_241" d="M226.87 55.3822C226.697 56.1622 227.217 57.2023 226.523 57.7223C225.137 56.3356 226.87 55.4689 226.87 55.3822Z" fill="var(--fill-0, black)"/>
<path id="Vector_242" d="M388.522 110.678C388.522 110.678 389.042 111.371 388.869 111.804C388.436 114.665 387.483 110.678 388.522 110.678Z" fill="var(--fill-0, #FEFEFC)"/>
<path id="Vector_243" d="M297.387 45.2418L298.6 45.5885L298.167 46.8019L297.82 46.3685L297.387 45.2418Z" fill="var(--fill-0, black)"/>
<path id="Vector_244" d="M425.947 240.856C425.947 240.856 426.466 241.55 426.293 241.983C425.86 244.843 424.907 240.856 425.947 240.856Z" fill="var(--fill-0, black)"/>
<path id="Vector_245" d="M226.523 438.811L227.303 439.591V440.371H226.523V438.811Z" fill="var(--fill-0, black)"/>
<path id="Vector_246" d="M425.947 244.756L426.293 245.883L425.167 246.317L424.734 245.883L425.947 244.756Z" fill="var(--fill-0, black)"/>
<path id="Vector_247" d="M226.523 441.931C226.523 441.931 227.043 442.624 226.87 443.058C226.437 445.918 225.484 441.931 226.523 441.931Z" fill="var(--fill-0, black)"/>
<path id="Vector_248" d="M425.947 247.097C425.947 247.097 426.466 247.79 426.293 248.223C425.86 251.083 424.907 247.097 425.947 247.097Z" fill="var(--fill-0, black)"/>
<path id="Vector_249" d="M379.599 115.358C378.387 115.358 378.387 113.971 379.599 113.018V115.358Z" fill="var(--fill-0, black)"/>
<path id="Vector_250" d="M207.811 444.271L208.158 445.484L207.032 445.831L206.598 445.484L207.811 444.271Z" fill="var(--fill-0, #FEFEFC)"/>
<path id="Vector_251" d="M226.523 445.051L227.65 445.485L226.523 446.611L226.09 446.265L226.523 445.051Z" fill="var(--fill-0, black)"/>
<path id="Vector_252" d="M143.878 449.731L144.658 450.511V451.291H143.878V449.731Z" fill="var(--fill-0, black)"/>
<path id="Vector_253" d="M143.878 38.2215L144.658 39.0016V39.7816H143.878V38.2215Z" fill="var(--fill-0, black)"/>
<path id="Vector_254" d="M226.523 455.192L227.303 455.972V456.752H226.523V455.192Z" fill="var(--fill-0, black)"/>
<path id="Vector_255" d="M425.947 257.237L426.293 258.364L425.167 258.797L424.734 258.364L425.947 257.237Z" fill="var(--fill-0, black)"/>
<path id="Vector_256" d="M41.0478 360.894L42.2606 361.328L41.8274 362.455L41.4809 362.108L41.0478 360.894Z" fill="var(--fill-0, black)"/>
<path id="Vector_257" d="M241.337 459.092C241.337 459.092 241.857 459.785 241.684 460.218C241.251 463.079 240.298 459.092 241.337 459.092Z" fill="var(--fill-0, black)"/>
<path id="Vector_258" d="M226.523 31.2013L227.303 31.9813V32.7613H226.523V31.2013Z" fill="var(--fill-0, black)"/>
<path id="Vector_259" d="M18.4372 258.797C18.4372 258.797 18.957 259.49 18.7837 259.924C18.3506 262.784 17.3976 258.797 18.4372 258.797Z" fill="var(--fill-0, black)"/>
<path id="Vector_260" d="M403.769 139.539V140.319C402.99 140.319 401.95 140.579 401.43 139.972C401.43 139.366 403.076 139.626 403.769 139.626V139.539Z" fill="var(--fill-0, black)"/>
<path id="Vector_261" d="M432.531 266.597V265.817C433.137 265.817 433.743 265.557 434.09 266.164C432.964 267.984 432.617 266.511 432.531 266.511V266.597Z" fill="var(--fill-0, black)"/>
<path id="Vector_262" d="M390.082 132.519L390.861 133.299V134.079H390.082V132.519Z" fill="var(--fill-0, black)"/>
<g id="Group_3">
<path id="Vector_263" d="M427.073 150.459C427.679 153.493 427.073 153.319 427.073 154.36C424.214 156.353 422.655 149.853 427.073 150.459Z" fill="var(--fill-0, black)"/>
<path id="Vector_264" d="M425.947 151.239L426.726 152.019V152.799H425.947V151.239Z" fill="var(--fill-0, #FEFEFC)"/>
</g>
<g id="Group_4">
<path id="Vector_265" d="M90.1672 80.2565C97.5308 79.8232 97.5308 91.5237 90.9469 91.957C83.41 92.3904 83.41 80.6899 90.1672 80.2565Z" fill="var(--fill-0, black)"/>
<path id="Vector_266" d="M90.1672 84.9367C91.38 84.5034 91.8998 86.0634 90.9469 86.4968C89.8207 87.0168 89.2143 85.2834 90.1672 84.9367Z" fill="var(--fill-0, black)"/>
</g>
<g id="Group_5">
<path id="Vector_267" d="M414.252 185.474C415.118 185.387 416.071 186.341 416.937 186.601L415.031 193.188C413.818 191.108 409.66 186.081 414.252 185.387V185.474Z" fill="var(--fill-0, black)"/>
<path id="Vector_268" d="M414.252 187.034C417.11 186.514 415.464 190.241 414.252 190.154C413.039 190.068 412.692 187.381 414.252 187.034Z" fill="var(--fill-0, #FEFEFC)"/>
</g>
<g id="Group_6">
<path id="Vector_269" d="M413.472 196.395C418.063 194.921 417.197 201.941 414.252 201.855C412.779 201.855 410.44 197.348 413.472 196.395Z" fill="var(--fill-0, black)"/>
<path id="Vector_270" d="M413.472 197.955C416.071 196.828 415.551 200.295 414.252 200.295C413.818 200.295 412.346 198.475 413.472 197.955Z" fill="var(--fill-0, #FEFEFC)"/>
</g>
<path id="Vector_271" d="M50.837 347.634H50.0573C48.498 344.947 50.5771 343.387 50.837 347.634Z" fill="var(--fill-0, #FEFEFC)"/>
<g id="Group_7">
<path id="Vector_272" d="M34.8104 157.48C36.8895 157.48 37.6692 161.466 35.59 162.16C32.7312 163.113 31.8649 157.393 34.8104 157.48Z" fill="var(--fill-0, black)"/>
<path id="Vector_273" d="M34.0307 159.04L35.2435 159.386L34.8104 160.6L34.4638 160.166L34.0307 159.04Z" fill="var(--fill-0, black)"/>
</g>
<g id="Group_8">
<path id="Vector_274" d="M210.93 461.432C213.962 460.392 214.482 463.685 213.269 464.552C210.843 466.199 207.898 462.472 210.93 461.432Z" fill="var(--fill-0, black)"/>
<path id="Vector_275" d="M211.71 462.212L212.836 462.645L211.71 463.772L211.277 463.425L211.71 462.212Z" fill="var(--fill-0, #FEFEFC)"/>
</g>
<g id="Group_9">
<path id="Vector_276" d="M210.93 436.471C214.568 435.257 214.309 439.764 212.489 440.371C209.717 441.324 209.631 436.904 210.93 436.471Z" fill="var(--fill-0, black)"/>
<path id="Vector_277" d="M211.71 437.251C213.356 436.037 212.663 440.024 211.71 439.591C211.103 439.331 211.017 437.684 211.71 437.251Z" fill="var(--fill-0, #FEFEFC)"/>
</g>
</g>
</g>
</svg>
