<svg preserveAspectRatio="none" width="100%" height="100%" overflow="visible" style="display: block;" viewBox="0 0 258 118" fill="none" xmlns="http://www.w3.org/2000/svg">
<g id="Group">
<path id="Vector" d="M37.3803 94.7672C37.3803 94.7672 37.1984 93.4937 38.4716 93.6756L37.3803 94.7672Z" fill="var(--fill-0, #FBFDFE)"/>
<path id="Vector_2" d="M36.289 95.8587C36.7437 95.222 36.7437 95.222 37.3803 94.7672C37.3803 94.7672 37.5622 96.0406 36.289 95.8587Z" fill="var(--fill-0, #FBFDFE)"/>
<path id="Subtract" d="M105.497 5.53711C113.227 -5.65077 123.867 3.08036 134.689 6.08203V5.99121C174.704 16.9972 207.262 21.8184 249.369 21.1816C248.733 27.8216 251.551 33.734 246.095 38.4639C202.988 38.7367 160.517 33.279 119.502 20.6357C122.23 36.9173 112.954 72.3913 126.505 82.8516C144.33 96.5862 200.442 100.316 223.359 101.226C222.905 104.5 226.27 103.317 228.271 103.408C232.273 103.499 255.277 102.59 256.371 103.408C257.735 104.409 256.462 115.051 256.917 117.507C222.177 118.598 174.25 116.051 141.146 105.591C129.142 101.771 115.409 96.0402 108.134 85.0342L38.3809 93.6758C37.1077 93.4939 37.38 94.6766 37.2891 94.7676C36.6529 95.222 36.6527 95.1312 36.1982 95.8584C36.0164 96.1313 35.2887 101.316 34.0156 102.862C24.2847 115.051 3.27635 112.322 0.457031 97.4961C-4.09013 73.483 26.5585 64.6597 36.7441 86.126L103.859 77.4854L105.497 5.53711ZM20.6465 98.042C27.1034 96.4048 24.8302 85.0348 17.373 86.126C10.2796 87.2175 11.8253 100.225 20.6465 98.042Z" fill="var(--fill-0, black)"/>
</g>
</svg>
