<svg preserveAspectRatio="none" width="100%" height="100%" overflow="visible" style="display: block;" viewBox="0 0 268 116" fill="none" xmlns="http://www.w3.org/2000/svg">
<g id="Group">
<path id="Vector" d="M133.748 41.3875V115.4C128.489 115.123 123.507 112.908 118.526 111.247C81.3465 98.9734 44.2597 79.3166 6.80386 66.8582C4.40521 64.4588 1.36077 61.7825 0.622726 58.1834C-0.207575 53.7537 -0.207575 13.9789 0.622726 9.64149C1.82205 3.82753 8.46447 -0.140726 14.1843 0.228413L133.748 41.2952V41.3875Z" fill="var(--fill-0, black)"/>
<g id="Group_2">
<path id="Subtract" d="M249.99 0.320504C255.987 -1.06376 265.304 2.07406 266.873 8.99531C267.611 12.3176 267.611 55.7844 266.873 59.1066C266.042 62.8902 260.691 66.7664 257.463 68.5197C237.166 79.594 163.915 108.663 141.59 114.57C138.545 115.4 136.977 115.584 133.748 115.4V41.3879L249.99 0.320504ZM212.258 51.2619C216.04 51.0772 216.04 42.6799 211.427 43.8791C208.383 44.6174 208.752 51.4465 212.258 51.2619ZM224.62 47.9396C227.203 47.1087 228.31 38.4343 222.129 40.5568C218.346 41.8489 220.007 49.5085 224.62 47.9396ZM240.211 47.2014C247.13 45.4479 245.931 31.7902 236.059 34.0051C228.771 35.7587 230.616 49.5082 240.211 47.2014Z" fill="var(--fill-0, black)"/>
</g>
</g>
</svg>
