<svg preserveAspectRatio="none" width="100%" height="100%" overflow="visible" style="display: block;" viewBox="0 0 51 43" fill="none" xmlns="http://www.w3.org/2000/svg">
<g id="Group">
<path id="Vector" d="M23.5439 0.00746267C24.0637 0.180803 29.8679 5.20766 32.4668 6.24771C33.8529 6.76773 35.4989 5.46768 37.4914 6.24771C51.0924 11.5346 55.5105 27.2219 45.2881 38.5757C44.855 42.3025 48.1469 38.9223 49.9662 40.9158C46.9341 40.1357 43.3823 42.8225 42.9491 42.8225C41.9962 42.8225 35.4989 41.4358 32.8133 41.2624C33.9395 38.9223 31.254 36.5823 31.254 35.8022C31.254 35.0222 31.254 34.2422 31.254 33.4621C31.254 33.1154 34.546 26.7019 30.4743 33.4621C25.8829 32.2487 20.4252 36.4956 14.8808 37.3623C14.9675 32.8554 13.5814 36.5823 13.3215 36.5823C10.3761 36.5823 -0.972515 37.5356 0.0670503 32.3354C0.0670503 31.9887 2.31944 31.5554 2.40608 30.7754C2.57934 26.7019 0.760095 22.6284 0.846725 22.195C1.53977 16.4748 7.17076 5.20766 12.5419 2.34754C13.4082 1.91419 16.0937 1.04749 17.2199 0.787479C17.9129 0.614138 23.1107 -0.0792075 23.4573 0.00746267H23.5439Z" fill="var(--fill-0, black)"/>
<g id="Group_2">
<path id="Vector_2" d="M31.3406 33.5488H30.561C34.6326 26.7885 31.3406 33.2021 31.3406 33.5488Z" fill="var(--fill-0, black)"/>
<path id="Vector_3" d="M14.9675 37.4489C14.1878 37.5356 13.4081 37.6223 13.4081 36.6689C13.5814 36.6689 15.0541 32.9421 14.9675 37.4489Z" fill="var(--fill-0, #FEFEFC)"/>
<path id="Vector_4" d="M19.2124 7.80775C24.3236 7.3744 26.2294 16.3014 20.7717 17.1681C14.4477 18.2082 13.4081 8.32778 19.2124 7.80775Z" fill="var(--fill-0, #FEFEFC)"/>
<path id="Vector_5" d="M39.4839 18.7282C43.2956 16.9081 43.2956 22.5417 41.0432 23.4084C38.3577 24.4484 37.1449 19.8549 39.4839 18.7282Z" fill="var(--fill-0, #FEFEFC)"/>
<path id="Vector_6" d="M47.2806 19.5082C47.8871 19.5082 47.8871 23.4084 47.2806 23.4084C46.5876 22.8017 46.7609 19.5082 47.2806 19.5082Z" fill="var(--fill-0, black)"/>
<g id="Group_3">
<path id="Vector_7" d="M14.5343 21.8483C19.299 20.4616 18.7792 27.3952 16.0937 28.0886C11.9354 29.2153 11.4156 22.8017 14.5343 21.8483Z" fill="var(--fill-0, #FEFEFC)"/>
<path id="Vector_8" d="M15.314 22.6283C17.2199 22.455 17.3931 26.9619 14.5343 26.5285C12.6285 26.1818 14.5343 22.715 15.314 22.6283Z" fill="var(--fill-0, black)"/>
</g>
</g>
</g>
</svg>
