<svg preserveAspectRatio="none" width="100%" height="100%" overflow="visible" style="display: block;" viewBox="0 0 23 23" fill="none" xmlns="http://www.w3.org/2000/svg">
<g id="Group">
<path id="Vector" d="M10.6641 0C12.1369 0 15.9486 0.780034 16.9015 1.56007C19.847 3.81349 18.5475 6.76025 20.7999 9.36036C21.2331 9.79371 20.8865 10.5737 22.3593 10.1404C22.3593 10.3137 22.3593 10.6604 22.3593 10.9204C22.7058 13.4339 22.0994 16.7273 20.7999 18.7207C20.4534 19.1541 19.3272 20.9742 19.2406 21.0608C10.7508 27.2144 -2.85019 16.554 0.528391 6.24026L1.30806 5.46023C3.82035 1.90675 6.15937 0.0866701 10.6641 0Z" fill="var(--fill-0, #FEFEFC)"/>
<path id="Vector_2" d="M9.45132 9.36037L11.3572 9.70705L12.4834 13.9539C8.75828 14.8206 5.55295 11.8738 9.36469 9.27371L9.45132 9.36037Z" fill="var(--fill-0, #FEFEFC)"/>
<path id="Vector_3" d="M22.3593 10.1404C20.8865 10.5737 21.2331 9.79372 20.7999 9.36036C22.879 8.06031 21.9261 8.84034 22.3593 10.1404Z" fill="var(--fill-0, #FEFEFC)"/>
</g>
</svg>
