<svg preserveAspectRatio="none" width="100%" height="100%" overflow="visible" style="display: block;" viewBox="0 0 96 98" fill="none" xmlns="http://www.w3.org/2000/svg">
<g id="Group">
<path id="Vector" d="M94.2672 5.98023C84.218 6.41358 88.3763 7.88698 93.4875 10.6604C88.8961 13.9539 87.6833 21.9275 95.0468 21.5808C94.0073 22.7076 91.6682 25.9144 91.1485 27.0411C86.7303 22.0142 82.2255 31.6346 88.8094 31.7213C86.557 36.5748 86.9036 37.1815 85.6907 41.8617C80.7528 35.4481 73.5625 44.8085 79.4534 48.1019L77.1143 52.7821C72.9561 47.4952 63.5134 55.7289 71.6566 60.5824C66.2855 63.3558 66.8053 62.1425 63.0802 67.6027C60.4813 65.6093 57.3626 69.8561 61.5209 69.9428C60.2214 72.1095 60.0482 74.4496 59.1819 76.183C54.1573 70.3761 49.306 74.9696 52.9445 80.8632C51.2118 81.9033 50.4322 82.8566 48.2664 83.9833C46.6204 79.4765 41.5959 81.9899 44.3681 86.3234C42.5488 87.3635 41.336 87.2768 41.2494 90.2236C38.044 85.9768 30.9403 91.2636 34.2323 96.4638C32.8462 96.3772 32.2398 96.4638 31.1136 97.2439C31.2868 95.9438 30.9403 94.6438 31.1136 93.3437C31.4601 90.397 29.9874 85.8901 30.3339 84.4167C30.4205 83.9833 34.5788 80.0832 35.7916 77.8298C37.351 74.7963 39.8633 72.8896 40.4697 68.9027C40.9028 65.7826 40.5563 54.9488 37.0045 53.7355C30.9403 51.742 8.58968 54.8622 0.0132669 53.7355C-0.0733635 52.9554 0.273159 53.0421 0.792942 52.9554C11.1886 50.2686 37.5243 55.8156 46.3606 49.8353C47.3135 49.2286 46.1873 47.4086 47.1402 46.7152C48.1798 45.8485 47.9199 48.9686 50.2589 48.2753C58.1423 46.0218 64.6395 29.6412 65.4192 22.1875C65.4192 21.6675 63.6 16.1206 63.8599 15.1673C64.0332 14.6473 70.7037 10.5737 72.4363 8.14698C73.9956 6.0669 74.3422 1.90674 76.3347 0C82.9186 5.98024 93.7474 5.37353 94.2672 6.24023V5.98023Z" fill="var(--fill-0, #FEFEFC)"/>
<g id="Group_2">
<path id="Vector_2" d="M91.1485 27.0411C91.1485 27.0411 92.5345 28.6878 91.9281 29.7279C90.8886 31.5479 88.8961 31.5479 88.8094 31.6346C82.2255 31.6346 86.7303 21.9275 91.1485 26.9544V27.0411Z" fill="var(--fill-0, black)"/>
<path id="Vector_3" d="M48.353 83.9834C47.66 84.4167 45.6675 85.6301 44.4547 86.3235C41.6825 81.9899 46.7071 79.4765 48.353 83.9834Z" fill="var(--fill-0, black)"/>
<path id="Vector_4" d="M63.1668 67.6027C62.8203 68.1227 61.7807 69.5961 61.6075 69.9428C57.4492 69.8561 60.5679 65.6093 63.1668 67.6027Z" fill="var(--fill-0, black)"/>
<path id="Vector_5" d="M70.5304 27.0411C77.894 25.9144 79.1068 36.9214 72.8694 37.9615C65.5059 39.1749 63.8599 28.0811 70.5304 27.0411Z" fill="var(--fill-0, black)"/>
<path id="Vector_6" d="M77.5475 7.54028C85.0843 6.15356 85.5175 16.9873 79.8865 17.6807C73.6491 18.4607 71.57 8.58032 77.5475 7.54028Z" fill="var(--fill-0, black)"/>
<path id="Vector_7" d="M64.293 45.7618C66.8053 45.3285 68.5379 49.7487 66.6321 50.442C61.8674 52.2621 62.0406 46.1085 64.293 45.7618Z" fill="var(--fill-0, black)"/>
<path id="Vector_8" d="M47.9199 54.3422C49.306 58.329 46.5338 59.4557 44.4547 56.2489L47.9199 54.3422Z" fill="var(--fill-0, black)"/>
<path id="Vector_9" d="M81.4459 23.1409C82.3988 23.1409 83.2651 26.3477 82.2255 27.0411C79.7133 28.6878 79.7999 23.1409 81.4459 23.1409Z" fill="var(--fill-0, black)"/>
<path id="Vector_10" d="M54.9369 53.5621V58.2423C52.9444 56.2489 52.5979 55.2089 54.9369 53.5621Z" fill="var(--fill-0, black)"/>
<path id="Vector_11" d="M45.5809 73.0629C45.5809 73.0629 48.2664 73.3229 48.2664 73.4096C50.1723 76.9631 42.6354 76.3564 45.5809 73.0629Z" fill="var(--fill-0, black)"/>
<path id="Vector_12" d="M68.9711 17.6807C70.6171 18.634 69.4043 20.0208 68.9711 21.5808C67.4118 20.3675 67.2385 18.9807 68.9711 17.6807Z" fill="var(--fill-0, #FEFEFC)"/>
<path id="Vector_13" d="M47.1402 50.442C49.306 50.2687 49.0461 53.7355 47.1402 53.5621C45.5809 53.4755 46.6204 50.442 47.1402 50.442Z" fill="var(--fill-0, black)"/>
<path id="Vector_14" d="M70.5304 41.0816C72.0898 40.6483 72.9561 43.075 71.3101 43.4217C68.4513 43.9417 69.231 41.4283 70.5304 41.0816Z" fill="var(--fill-0, black)"/>
<path id="Vector_15" d="M47.1402 62.9225C49.6525 63.3558 47.4001 66.736 45.2343 64.0492C45.9274 63.9625 47.0536 62.8358 47.1402 62.9225Z" fill="var(--fill-0, black)"/>
<path id="Vector_16" d="M83.0052 34.0614C83.0052 34.0614 84.9111 35.8814 83.7849 36.4014C81.186 37.5281 81.7057 34.0614 83.0052 34.0614Z" fill="var(--fill-0, black)"/>
<path id="Vector_17" d="M66.6321 59.8024C69.5775 59.369 66.3722 63.0092 65.5059 60.9291L66.6321 59.8024Z" fill="var(--fill-0, #FEFEFC)"/>
<path id="Vector_18" d="M76.7678 19.2407C78.847 18.8074 79.7999 20.6275 77.5475 20.8008C77.4609 20.8008 75.9882 19.6741 76.7678 19.2407Z" fill="var(--fill-0, #FEFEFC)"/>
<path id="Vector_19" d="M54.9369 63.7025C55.8899 63.0092 55.9765 66.6493 54.9369 66.0426C54.3305 65.696 54.2439 64.1359 54.9369 63.7025Z" fill="var(--fill-0, black)"/>
<path id="Vector_20" d="M61.954 41.0816L62.7337 41.8617V42.6417H61.954V41.0816Z" fill="var(--fill-0, black)"/>
<path id="Vector_21" d="M64.293 37.9615L64.7262 39.0882L63.5134 39.5216L63.1668 39.0882L64.293 37.9615Z" fill="var(--fill-0, #FEFEFC)"/>
</g>
</g>
</svg>
