<svg preserveAspectRatio="none" width="100%" height="100%" overflow="visible" style="display: block;" viewBox="0 0 485 120" fill="none" xmlns="http://www.w3.org/2000/svg">
<g id="Group">
<g id="Vector">
</g>
<g id="Vector_2">
</g>
<path id="Vector_3" d="M241.391 76.4986C241.391 76.4986 236.39 76.2257 238.118 70.5863C239.482 69.6767 240.846 69.3128 242.483 68.949C246.939 68.0394 272.312 65.9474 269.493 73.8608C267.856 78.6816 246.484 75.7709 241.391 76.5895V76.4986Z" fill="var(--fill-0, black)"/>
<g id="Group_2">
<path id="Vector_4" d="M252.214 41.8433C248.94 42.2981 245.575 40.9337 242.483 43.4806V68.949C240.937 69.3128 239.482 69.5857 238.117 70.5863C236.299 76.2257 241.301 76.1347 241.391 76.4986C243.847 85.1396 241.846 94.6903 242.483 103.513C215.745 103.604 147.265 100.785 127.258 82.9567C113.889 70.9501 122.802 38.8417 120.255 21.8324L171.638 35.3852C183.643 35.84 195.465 38.7507 207.379 39.7513C222.112 40.9337 238.299 39.2965 252.305 41.9343L252.214 41.8433Z" fill="var(--fill-0, black)"/>
<path id="Vector_5" d="M196.556 67.7665C203.195 65.5835 218.11 70.4953 225.749 68.858C237.754 83.4114 180.005 73.2241 196.556 67.7665Z" fill="var(--fill-0, black)"/>
<path id="Vector_6" d="M162.998 62.4C164.181 62.1271 186.826 66.1293 187.371 67.3118C193.737 80.2279 147.265 66.4931 162.998 62.4Z" fill="var(--fill-0, black)"/>
</g>
<g id="Group_3">
<path id="Subtract" d="M351.615 8.18866C358.799 5.91455 370.713 -5.09136 377.079 2.82147L376.715 2.91327C381.534 8.9166 377.807 45.6631 380.535 55.9416C391.449 56.3967 441.103 73.0421 447.651 71.132C451.47 70.0396 454.654 54.6686 472.569 60.3078C505.49 70.768 464.203 125.707 445.559 79.7726L380.626 64.5832C379.989 74.4066 378.079 83.5934 371.44 91.0519C337.791 129.073 160.635 126.435 120.983 96.964C110.888 89.5054 105.067 78.0445 104.795 65.5832L38.7702 79.6818C33.6774 106.969 -4.24585 99.2381 0.392251 73.7697C3.5753 56.3057 31.0399 53.941 36.6784 71.0412L103.795 56.9426C109.888 52.8493 98.52 4.00432 112.434 0.638852C117.618 -0.634293 130.167 6.27839 136.806 8.18866C203.104 28.1086 285.135 29.2911 351.615 8.18866ZM364.165 21.1955C328.697 37.5681 289.864 36.3856 252.214 41.7521C248.94 42.2069 245.575 40.8431 242.483 43.3898V68.8576C246.849 67.948 272.221 65.8566 269.493 73.7697C267.856 78.5905 246.484 75.6796 241.391 76.4982C243.847 85.1392 241.847 94.69 242.483 103.513V103.422C269.039 103.331 337.609 100.42 357.708 82.8654C370.712 71.4955 362.801 37.7499 364.165 21.1955Z" fill="var(--fill-0, black)"/>
<path id="Vector_7" d="M332.88 52.6674C347.522 48.5743 345.794 73.4969 331.789 68.858C325.787 66.8569 327.242 54.2137 332.88 52.6674Z" fill="var(--fill-0, black)"/>
<path id="Vector_8" d="M307.962 59.1255C318.784 57.852 317.056 76.7714 305.779 73.2241C299.504 71.223 301.687 59.8531 307.962 59.1255Z" fill="var(--fill-0, black)"/>
</g>
</g>
</svg>
