<svg preserveAspectRatio="none" width="100%" height="100%" overflow="visible" style="display: block;" viewBox="0 0 527 500" fill="none" xmlns="http://www.w3.org/2000/svg">
<g id="Group 1">
<path id="Vector" d="M324.556 412.852C342.84 432.799 365.399 447.344 389.442 449.6C437.529 455.833 486.387 409.112 477.601 360.729C472.495 330.215 447.681 304.034 419.482 291.627C414.495 280.644 403.512 247.993 403.809 240.513C425.834 241.285 446.79 249.358 464.778 261.647C531.861 310.208 550.087 397.298 489.177 459.395C429.099 518.583 342.068 505.819 288.936 444.91C267.861 420.807 302.768 389.403 324.496 412.912L324.556 412.852Z" fill="var(--fill-0, black)"/>
<path id="Vector_2" d="M284.78 238.673C222.327 302.313 132.091 362.213 168.363 462.66C178.337 496.677 129.182 512.884 117.19 479.401C74.3869 350.518 164.742 280.11 246.726 200.678C254.622 193.376 261.093 185.303 271.779 183.343C282.821 181.206 310.307 180.435 318.084 190.764C323.368 199.847 318.44 203.053 309.417 213.679C302.293 221.516 292.913 230.836 284.839 238.673H284.78Z" fill="var(--fill-0, black)"/>
<path id="Vector_3" d="M388.373 169.096C388.076 40.2123 212.234 8.57027 168.897 129.914C163.554 142.737 164.088 155.145 163.613 169.452C163.079 187.321 164.563 208.812 156.905 226.146C140.757 258.798 103.179 278.863 82.4006 304.153C42.566 350.637 49.6899 408.578 74.6236 461.948C80.7383 475.543 74.683 491.512 61.0882 497.627C47.4934 503.741 31.5833 497.627 25.4686 484.032C18.2854 468.003 11.9332 451.203 7.30265 433.393C-15.0783 352.893 15.3764 281.832 79.6104 232.973C89.7026 224.187 101.576 214.036 107.928 203.884C112.143 178.713 106.028 138.344 118.376 111.273C160.764 -11.911 321.348 -38.5663 404.223 60.3374C435.034 97.5598 447.026 148.258 440.318 195.454L387.185 192.308C388.195 184.709 388.61 176.635 388.313 169.214L388.373 169.096Z" fill="var(--fill-0, black)"/>
</g>
</svg>
