<svg preserveAspectRatio="none" width="100%" height="100%" overflow="visible" style="display: block;" viewBox="0 0 106 75" fill="none" xmlns="http://www.w3.org/2000/svg">
<path id="Vector" d="M42.6408 0.486943C48.453 1.59436 57.9553 10.1769 59.0624 16.0831C60.6307 24.2042 54.9109 52.9971 64.4132 55.5811C79.5432 59.6416 76.4987 45.9834 86.6468 44.0455C110.726 39.5235 111.833 77.0835 88.3075 74.4995C80.6502 73.6689 77.1445 64.2559 75.9452 63.7944C73.6388 62.7793 65.5203 64.4404 60.3539 62.1333C43.7479 54.8428 54.7263 25.773 50.9438 14.8834C50.7593 14.422 44.3937 8.88487 43.9324 8.7003C35.7217 6.30089 8.59845 11.2843 2.04829 8.7003C-0.350358 7.77745 -0.996148 1.59436 2.04829 0.486943C3.98566 -0.251336 39.6886 -0.0667665 42.7331 0.486943H42.6408Z" fill="var(--fill-0, black)"/>
</svg>
