<svg preserveAspectRatio="none" width="100%" height="100%" overflow="visible" style="display: block;" viewBox="0 0 268 209" fill="none" xmlns="http://www.w3.org/2000/svg">
<g id="Group">
<path id="Vector" d="M133.84 208.07C130.703 208.07 128.12 207.239 125.168 206.409C87.6199 196.35 45.09 170.049 6.80386 158.698C4.40521 156.298 1.36077 153.622 0.622726 150.023C-0.207575 145.593 -0.207575 107.572 0.622726 103.142C1.36077 99.5428 3.75943 97.2357 6.34259 95.2977L132.456 135.534L133.656 207.885L133.84 208.07Z" fill="var(--fill-0, black)"/>
<g id="Group_2">
<path id="Subtract" d="M246.115 0.981673C253.496 -0.679411 264.844 -1.41701 267.058 8.8264C267.796 12.334 268.072 34.4816 267.888 39.2805C267.427 52.4771 269.456 60.2293 256.817 66.7815C247.868 71.3956 225.174 76.1019 218.623 80.716L218.53 80.6243C217.793 81.1776 217.055 81.1776 218.53 81.4543C227.202 85.8839 262.997 91.4214 266.227 99.9114C267.98 104.711 267.795 149.744 265.397 154.175C264.197 156.298 259.769 159.159 257.555 160.359C237.443 171.248 165.114 200.594 143.342 206.408C140.113 207.239 137.345 208.07 133.932 208.07L132.733 135.718L6.61936 95.4817C12.524 91.2366 39.8308 84.1312 48.5031 81.5471C49.0567 81.3626 50.1642 82.0079 50.1643 80.716C77.7487 91.3288 105.333 102.126 133.564 111.17L133.932 38.8186C170.281 29.8669 210.32 8.8259 246.115 0.981673ZM213.18 145.5C216.593 144.67 215.302 137.841 211.52 138.948C208.752 139.687 209.029 146.515 213.18 145.5ZM225.081 136.549C224.712 139.41 224.62 142.362 220.93 141.44C224.897 145.131 228.955 139.133 225.081 136.549Z" fill="var(--fill-0, black)"/>
<path id="Vector_2" d="M224.251 47.771L225.081 46.9404C225.081 46.9404 225.358 47.6787 224.251 47.771Z" fill="var(--fill-0, white)"/>
</g>
</g>
</svg>
