<svg preserveAspectRatio="none" width="100%" height="100%" overflow="visible" style="display: block;" viewBox="0 0 44 48" fill="none" xmlns="http://www.w3.org/2000/svg">
<g id="Group">
<path id="Vector" d="M35.8651 4.23038C50.5057 15.3242 43.3154 39.2451 25.7294 42.7986L26.0759 47.0454C23.9968 47.5655 25.2962 43.8386 24.9497 43.1453C24.4299 42.2786 13.6011 42.8853 7.01721 36.905C-2.4255 28.4114 -2.25224 14.1108 7.01721 5.70379C14.4674 -1.05648 27.6352 -2.09653 35.8651 4.14372V4.23038Z" fill="var(--fill-0, black)"/>
<path id="Vector_2" d="M19.9251 22.0844C20.2717 27.3713 21.831 23.5579 24.17 25.5513C19.6653 26.5913 18.539 27.3713 19.9251 22.0844Z" fill="var(--fill-0, #FEFEFC)"/>
<path id="Vector_3" d="M27.7219 18.9643C30.2342 18.0109 29.0213 21.6511 27.7219 22.8645C25.816 22.1711 27.1155 19.1376 27.7219 18.9643Z" fill="var(--fill-0, #FEFEFC)"/>
<path id="Vector_4" d="M16.0268 18.9643C18.4525 17.4043 17.5861 21.2177 16.8065 21.3044C16.5466 21.3044 14.9006 19.6577 16.0268 18.9643Z" fill="var(--fill-0, #FEFEFC)"/>
</g>
</svg>
