<svg preserveAspectRatio="none" width="100%" height="100%" overflow="visible" style="display: block;" viewBox="0 0 507 436" fill="none" xmlns="http://www.w3.org/2000/svg">
<g id="Group 1">
<path id="Vector" d="M413.802 343.662C429.534 321.646 439.096 296.566 436.329 272.576C432.478 224.241 376.659 186.106 331.141 204.713C302.343 216.022 281.864 245.717 275.559 275.872C265.846 283.024 236.173 300.524 228.794 301.782C224.992 280.074 228.555 257.901 236.856 237.759C270.487 162.08 351.921 126.23 425.277 172.973C495.614 219.505 501.134 307.293 452.536 371.878C433.315 397.484 395.368 369.83 413.872 343.708L413.802 343.662Z" fill="var(--fill-0, black)"/>
<path id="Vector_2" d="M312.336 129.295C225.409 149.151 117.115 150.861 93.423 254.995C83.4549 289.014 33.3286 276.12 41.3092 241.462C74.855 109.865 188.922 99.375 300.814 76.7701C311.402 74.8858 321.208 71.5828 331.26 75.7023C341.709 79.8642 365.263 94.0528 366.233 106.946C365.777 117.444 359.899 117.483 346.566 121.557C336.339 124.307 323.412 127.089 312.386 129.327L312.336 129.295Z" fill="var(--fill-0, black)"/>
<path id="Vector_3" d="M165.559 53.8362C36.7476 58.1677 10.6259 234.914 133.267 274.431C146.251 279.37 158.636 278.448 172.951 278.474C190.828 278.449 212.261 276.293 229.828 283.405C262.968 298.522 284.201 335.454 310.129 355.43C357.836 393.79 415.526 384.856 468.089 358.263C481.486 351.726 497.637 357.279 504.174 370.675C510.712 384.072 505.098 400.166 491.701 406.703C475.905 414.385 459.312 421.26 441.656 426.445C361.896 451.336 289.916 423.12 239.071 360.447C229.973 350.635 219.455 339.086 209.109 333.054C183.819 329.629 143.661 337.005 116.217 325.51C-8.23398 287 -39.9034 127.328 56.3573 41.3979C92.5969 9.43685 142.895 -4.1363 190.278 1.09127L188.796 54.2962C181.17 53.5254 173.087 53.3628 165.679 53.8918L165.559 53.8362Z" fill="var(--fill-0, black)"/>
</g>
</svg>
