<svg preserveAspectRatio="none" width="100%" height="100%" overflow="visible" style="display: block;" viewBox="0 0 18 30" fill="none" xmlns="http://www.w3.org/2000/svg">
<g id="Group">
<path id="Vector" d="M7.91978 6.19063e-07C9.56576 3.12013 11.7315 5.80691 13.3775 8.92703C13.5508 9.36038 11.9914 12.8272 17.2759 15.1673C9.73901 14.6473 9.21923 23.1409 4.80108 27.6478C3.415 29.0345 1.07597 29.4679 0.902709 29.5545C-0.483378 27.6478 1.59575 27.9078 1.68238 25.6544C1.68238 24.441 1.33586 23.661 0.123034 23.3143C1.33586 17.7674 5.49412 24.441 1.68238 17.854C5.32086 16.9873 5.32086 11.2671 0.902709 12.3938C1.24923 11.4405 1.50912 8.92704 1.68238 8.49369C1.68238 8.32035 3.58826 8.92703 4.02141 8.147C4.19467 7.80032 4.45456 5.28689 4.80108 4.6802C5.66739 3.12013 6.36044 0.0866707 7.91978 6.19063e-07Z" fill="var(--fill-0, black)"/>
<path id="Vector_2" d="M1.68237 25.741C-0.13687 26.0877 -0.136873 24.701 0.123018 23.4009C1.33584 23.7476 1.769 24.5276 1.68237 25.741Z" fill="var(--fill-0, #FEFEFC)"/>
<path id="Vector_3" d="M13.724 13.2605L14.5037 14.0406V14.8206H13.724V13.2605Z" fill="var(--fill-0, #FEFEFC)"/>
</g>
</svg>
