<svg preserveAspectRatio="none" width="100%" height="100%" overflow="visible" style="display: block;" viewBox="0 0 37 29" fill="none" xmlns="http://www.w3.org/2000/svg">
<path id="Vector" d="M28.7198 0C29.4995 1.7334 34.6973 6.67358 36.5165 7.02026C34.6973 7.88696 33.6577 10.0537 32.6182 11.7005C28.3733 3.46679 19.8835 12.4805 24.8214 16.3806C21.9626 15.9473 21.0097 20.1075 19.0172 21.0608C18.1509 21.4942 11.8269 22.9676 10.0943 23.4009C10.0076 23.4009 9.31458 21.6675 8.96805 21.8409C3.33708 23.8343 5.67612 26.9544 5.50286 27.3011C4.89645 28.2544 4.63655 28.2544 3.94351 28.8611C3.25046 27.1277 2.99057 27.3011 1.60448 28.0811C0.0451356 27.6478 -0.474656 26.3477 0.478278 24.961C1.51784 23.4876 15.1188 16.4673 18.4108 13.2605C22.3091 9.44703 24.6482 3.12012 28.8931 0H28.7198Z" fill="var(--fill-0, #FEFEFC)"/>
</svg>
