<svg preserveAspectRatio="none" width="100%" height="100%" overflow="visible" style="display: block;" viewBox="0 0 11 149" fill="none" xmlns="http://www.w3.org/2000/svg">
<g id="Group">
<path id="Vector" d="M7.75135 0.780033C6.62515 3.55348 6.27863 37.9615 6.97167 41.6883C8.27113 48.6219 14.7684 47.0619 6.97167 56.5089L7.75135 146.559C6.53852 146.559 7.14494 148.119 6.62516 148.119C1.42734 147.773 5.84549 146.559 5.84549 145.779C5.84549 144.132 4.37277 137.112 3.15995 135.639L3.93961 57.289C-3.94376 47.4086 2.29364 48.1886 3.15995 42.4684C4.54603 33.1947 4.63266 9.18703 3.15995 0L7.83798 0.780033H7.75135Z" fill="var(--fill-0, #FEFEFC)"/>
<path id="Vector_2" d="M5.84548 47.5819C5.84548 47.5819 8.1845 48.7086 7.75135 49.4886L4.28613 50.6154C2.81341 49.4886 4.89255 47.5819 5.84548 47.4952V47.5819Z" fill="var(--fill-0, #FEFEFC)"/>
</g>
</svg>
