<svg preserveAspectRatio="none" width="100%" height="100%" overflow="visible" style="display: block;" viewBox="0 0 22 18" fill="none" xmlns="http://www.w3.org/2000/svg">
<g id="Group">
<path id="Vector" d="M21.4266 2.20526C20.2137 4.45868 16.0555 8.44553 15.9689 8.79221C15.6224 10.2656 17.0951 14.8591 16.7485 17.7192C13.7165 16.1592 10.8577 15.5525 7.39245 16.1592C8.69191 12.519 7.04592 14.6858 5.05342 13.039C4.53364 12.6057 3.92722 9.74556 1.15505 10.6989C0.115484 8.87886 -0.404267 9.65892 0.375407 7.57883C2.71443 1.59859 4.9668 5.41208 8.17212 6.01877C8.9518 6.19211 9.29833 6.7988 9.29833 6.7988C10.5978 6.27878 10.2513 5.06539 10.4245 4.4587C10.6844 3.76534 10.1646 1.85859 10.4245 1.33857C10.8577 0.558541 10.7711 0.818551 11.2042 0.55854C12.8502 -0.568172 19.694 0.038522 21.3399 2.11861L21.4266 2.20526Z" fill="var(--fill-0, black)"/>
<path id="Vector_2" d="M5.05344 13.1257C0.981807 15.9859 1.76147 11.8257 1.15506 10.7856C3.92723 9.7456 4.53365 12.6924 5.05344 13.1257Z" fill="var(--fill-0, black)"/>
<path id="Vector_3" d="M9.38495 10.0056C10.4245 10.0923 10.3379 13.8191 9.38495 13.9057C8.69191 13.9057 7.73897 9.83225 9.38495 10.0056Z" fill="var(--fill-0, #FEFEFC)"/>
<path id="Vector_4" d="M10.5112 4.54537C10.2513 5.15206 10.5978 6.36545 9.38496 6.88547C9.38496 6.88547 8.95183 6.27877 8.25879 6.10543L10.5978 4.54537H10.5112Z" fill="var(--fill-0, #FEFEFC)"/>
</g>
</svg>
