<svg preserveAspectRatio="none" width="100%" height="100%" overflow="visible" style="display: block;" viewBox="0 0 61 57" fill="none" xmlns="http://www.w3.org/2000/svg">
<g id="Group">
<path id="Vector" d="M25.8929 4.68018C27.1057 6.15357 28.6651 13.1739 28.5784 14.8206C28.5784 15.6006 24.1603 16.814 29.3581 17.1607C29.9645 17.1607 29.3581 15.6006 30.4843 15.6006C30.7442 15.6006 34.3826 16.4673 35.5088 16.3807C40.1003 15.9473 38.1078 14.1272 44.4318 15.6006C44.9516 15.6873 45.2981 15.3406 45.2115 14.8206C67.5621 22.1875 64.0969 47.0619 41.7462 46.8019L29.7046 54.6022C28.5784 49.4887 27.1057 52.7821 26.5859 56.1622C25.633 52.0887 19.3956 48.7086 15.6705 46.8019C17.9229 41.6017 12.9849 42.4684 12.5518 42.1217C6.83418 37.7015 5.96788 32.328 0.0770073 29.6412C1.2032 27.9078 0.0770073 26.5211 0.0770073 25.741C0.0770073 23.6609 -0.0962536 20.8008 0.0770073 19.1541C0.0770073 18.4607 2.3294 19.1541 2.41603 18.3741C2.41603 18.1141 0.856682 16.9873 0.856682 16.814C1.98288 10.3137 4.23527 4.07349 10.9924 2.42675C11.5122 2.34008 15.9304 5.89356 16.4502 0.866688C19.5689 1.30004 23.6405 2.25342 25.8063 4.76685L25.8929 4.68018Z" fill="var(--fill-0, black)"/>
<g id="Group_2">
<path id="Vector_2" d="M16.5368 0.780033C16.017 5.8069 11.5989 2.25341 11.0791 2.34008L12.2053 0C14.0245 4.24684 13.3315 0.346682 16.4502 0.780033H16.5368Z" fill="var(--fill-0, #FEFEFC)"/>
<path id="Vector_3" d="M45.3847 14.8206C45.4714 15.3406 45.1248 15.6873 44.605 15.6006C43.219 12.9138 44.4318 14.5606 45.3847 14.8206Z" fill="var(--fill-0, #FEFEFC)"/>
<path id="Vector_4" d="M46.1644 33.5413C47.5505 29.9012 45.9911 24.5276 41.4863 27.7344L43.3922 25.0477C48.0702 25.9144 47.6371 31.5479 51.5355 33.9747C50.7558 35.3614 48.2435 33.5413 46.0778 33.628L46.1644 33.5413Z" fill="var(--fill-0, #FEFEFC)"/>
<path id="Vector_5" d="M46.1644 33.5413C44.8649 36.9215 44.0853 37.6148 40.7067 35.4481L41.8329 31.9813C43.3056 38.1348 44.5184 33.5413 46.0778 33.5413H46.1644Z" fill="var(--fill-0, #FEFEFC)"/>
<path id="Vector_6" d="M14.6309 7.80031C15.2373 8.23366 15.2373 11.1804 14.6309 11.7005C8.3069 8.75367 14.2844 7.5403 14.6309 7.80031Z" fill="var(--fill-0, #FEFEFC)"/>
<path id="Vector_7" d="M27.1057 30.4212C28.3185 29.9879 28.8383 31.5479 27.8854 31.9813C26.7592 32.5013 26.1528 30.7679 27.1057 30.4212Z" fill="var(--fill-0, #FEFEFC)"/>
<path id="Vector_8" d="M27.1057 33.5413L28.2319 33.888L27.8854 35.1014L27.4522 34.6681L27.1057 33.5413Z" fill="var(--fill-0, #FEFEFC)"/>
<g id="Group_3">
<path id="Vector_9" d="M13.0716 14.8206C15.6705 14.2139 17.1432 19.0674 14.6309 20.2808C10.4727 22.2742 10.5593 15.4273 13.0716 14.8206Z" fill="var(--fill-0, #FEFEFC)"/>
<path id="Vector_10" d="M13.8512 16.3806C15.2373 16.3806 15.1507 19.5008 13.8512 19.5008C12.5518 19.5008 12.5518 16.3806 13.8512 16.3806Z" fill="var(--fill-0, black)"/>
</g>
<g id="Group_4">
<path id="Vector_11" d="M13.0716 33.5413C17.2298 32.848 15.324 39.3482 13.0716 39.0015C11.339 38.7415 10.5593 33.9747 13.0716 33.5413Z" fill="var(--fill-0, #FEFEFC)"/>
<path id="Vector_12" d="M13.8512 35.1014C14.5443 36.0548 14.7175 37.5282 13.0716 37.4415C12.3785 37.4415 13.5913 35.6214 13.8512 35.1014Z" fill="var(--fill-0, black)"/>
</g>
<g id="Group_5">
<path id="Vector_13" d="M12.2919 24.181C15.8437 22.5342 17.2298 28.6012 14.6309 29.6412C11.6855 30.8546 9.34645 25.5677 12.2919 24.181Z" fill="var(--fill-0, #FEFEFC)"/>
<path id="Vector_14" d="M13.0716 24.961C15.3239 24.441 15.5838 28.6011 13.8512 28.8612C13.1582 28.9478 10.6459 25.481 13.0716 24.961Z" fill="var(--fill-0, black)"/>
</g>
</g>
</g>
</svg>
