<svg preserveAspectRatio="none" width="100%" height="100%" overflow="visible" style="display: block;" viewBox="0 0 70 96" fill="none" xmlns="http://www.w3.org/2000/svg">
<path id="Vector" d="M5.38861 0.0999734C7.23373 -0.269167 40.9071 0.469115 43.2135 0.93054C48.2875 1.85339 55.0222 8.68247 55.9448 13.6659C57.6976 22.9866 53.6384 59.7161 55.9448 64.6072C56.6828 66.0837 61.2956 66.176 62.9562 67.468C78.4552 79.9265 64.9858 100.321 49.0256 94.5998C44.7818 93.1232 40.7226 85.0021 39.9845 84.7253C35.1872 82.9719 1.69838 86.9401 0.130036 83.5256C-0.146731 82.9719 0.0377888 77.7116 0.499068 77.3425C2.71321 75.7737 34.3569 79.1882 39.1542 77.3425C40.6303 76.7888 41.3684 72.636 42.0142 71.99C43.2135 70.7903 48.4721 66.6374 48.5643 66.2683C49.3946 63.7766 48.8411 15.2347 47.734 12.8353C43.2135 3.14537 8.80209 11.6356 1.32937 8.31333C-0.792512 7.39048 0.314548 3.14537 0.130036 1.29967C1.97515 1.20739 3.91254 0.376828 5.48089 0.0999734H5.38861Z" fill="var(--fill-0, black)"/>
</svg>
