<svg preserveAspectRatio="none" width="100%" height="100%" overflow="visible" style="display: block;" viewBox="0 0 17 19" fill="none" xmlns="http://www.w3.org/2000/svg">
<g id="Group">
<path id="Vector" d="M14.767 2.39239C15.6333 3.60578 15.9798 3.95246 16.3263 5.51252C17.5392 11.4061 15.7199 12.6195 13.9873 17.993C11.9082 17.213 10.3488 18.513 8.96272 17.993C6.36381 16.953 0.559583 11.9261 0.0398006 11.7528C-0.220091 8.71931 0.819478 5.68586 2.37883 3.17243C3.07187 2.04571 4.89111 1.69905 4.71785 0.0523124C7.83655 0.398993 10.9552 -1.16108 14.8536 2.39239H14.767Z" fill="var(--fill-0, black)"/>
<path id="Vector_2" d="M8.87607 6.98592C9.48248 6.98592 9.48248 10.106 8.87607 10.106C8.26966 10.106 8.26966 6.98592 8.87607 6.98592Z" fill="var(--fill-0, #FEFEFC)"/>
</g>
</svg>
