<svg preserveAspectRatio="none" width="100%" height="100%" overflow="visible" style="display: block;" viewBox="0 0 263 149" fill="none" xmlns="http://www.w3.org/2000/svg">
<g id="Group">
<path id="Subtract" d="M125.283 0.104815C131.003 -0.541171 137.83 1.95051 143.365 3.42708C181.559 13.3016 218.554 29.6361 256.748 39.6029C258.224 40.526 261.73 45.0478 262.099 46.6165C262.929 50.2161 262.837 90.4498 262.099 94.3275C261.73 96.3577 258.501 100.88 256.748 102.172C218.462 112.785 176.116 137.148 138.384 146.561C134.878 147.484 132.756 148.222 128.974 148.222V148.037L128.604 83.0687L0 41.1712C2.76756 38.6797 4.52067 38.4031 7.8418 37.0189C25.8317 29.6361 108.954 1.95065 125.283 0.104815ZM231.285 85.6527C241.064 90.1746 243.647 71.7183 232.946 73.2865C227.411 74.117 225.658 83.0686 231.285 85.6527Z" fill="var(--fill-0, black)"/>
<path id="Vector" d="M218.185 80.6696C221.691 78.9162 223.443 85.0993 220.676 86.3913C216.617 88.3292 216.063 81.6847 218.185 80.6696Z" fill="var(--fill-0, black)"/>
<path id="Vector_2" d="M206.653 83.9919C210.897 81.8693 211.358 89.3444 208.314 89.7135C205.454 90.0827 204.716 84.9147 206.653 83.9919Z" fill="var(--fill-0, black)"/>
</g>
</svg>
