<svg preserveAspectRatio="none" width="100%" height="100%" overflow="visible" style="display: block;" viewBox="0 0 360 210" fill="none" xmlns="http://www.w3.org/2000/svg">
<g id="Group">
<path id="Vector" d="M132.668 0L133.214 14.0986C131.213 15.5539 113.661 9.00491 112.115 16.2816C85.1046 18.1917 20.9897 24.0131 16.8972 58.4864C16.5335 61.8519 16.7154 66.9456 16.8972 70.402C17.1701 76.3143 16.2606 81.59 19.0799 87.1384C29.3565 107.513 101.656 114.972 122.937 115.79L123.483 129.889C121.209 131.617 95.745 123.977 92.6529 128.798C70.2809 126.342 34.7221 120.247 16.8972 106.058C0.345586 92.8688 -1.29139 72.767 1.70973 52.4832C8.53047 6.91286 97.382 0.545752 132.668 0Z" fill="var(--fill-0, black)"/>
<path id="Vector_2" d="M255.987 108.241C236.616 121.703 197.238 127.979 173.774 129.889C169.227 125.887 164.316 128.798 159.132 128.798C157.041 123.34 161.952 117.246 154.221 115.79C175.775 114.972 253.713 108.241 259.17 81.6809C270.811 25.0136 205.059 19.0104 163.952 16.1906C173.956 14.1896 175.138 10.5512 170.409 1.00055C201.512 3.54739 265.263 13.189 273.175 50.2092C277.722 71.5845 274.721 94.9609 255.896 108.15L255.987 108.241Z" fill="var(--fill-0, black)"/>
<path id="Vector_3" d="M14.7146 112.607C21.8991 115.881 17.1701 129.434 16.8972 137.53C16.6244 145.625 13.3505 169.365 18.5342 174.368C30.5387 185.92 101.656 191.013 119.663 191.65C135.487 192.287 151.402 193.469 167.226 192.741C166.044 194.652 165.044 205.385 164.498 205.749C162.77 206.931 142.308 206.658 138.488 206.84C136.488 206.84 133.123 205.749 133.577 209.023C105.658 208.659 70.9175 205.749 43.8164 199.291C35.5406 197.289 4.25614 188.194 1.61879 180.371C-0.0181864 175.641 -0.472901 128.888 0.527474 122.976C1.70973 116.245 7.5301 109.514 14.6237 112.698L14.7146 112.607Z" fill="var(--fill-0, black)"/>
<path id="Vector_4" d="M170.5 1.18246C175.229 10.7331 174.047 14.2805 164.043 16.3726C146.4 15.1901 129.758 15.1901 112.115 16.3726C113.661 9.09587 131.213 15.6449 133.214 14.1896L132.668 0.0909587C145.218 -0.0909587 158.041 0.0909586 170.5 1.18246Z" fill="var(--fill-0, black)"/>
<path id="Vector_5" d="M119.663 162.361C99.8374 161.452 74.2824 158.268 55.2753 152.629C47.3632 150.264 22.5357 143.806 28.8108 133.164C30.6297 132.072 31.0844 128.707 35.8134 128.798C38.7236 128.888 55.4572 137.257 60.7319 138.53C103.384 149.172 159.405 150.991 202.512 141.805C209.242 140.349 239.435 128.616 241.436 128.798C248.075 129.616 249.439 139.258 243.619 143.988C224.884 159.269 144.491 163.453 119.754 162.361H119.663Z" fill="var(--fill-0, black)"/>
<path id="Vector_6" d="M154.312 115.881C161.952 117.337 157.132 123.431 159.223 128.888C164.316 128.888 169.318 125.978 173.865 129.98C147.31 132.163 119.117 131.799 92.7439 128.888C95.8359 124.068 121.3 131.617 123.574 129.98L123.028 115.881C133.032 116.245 144.4 116.245 154.403 115.881H154.312Z" fill="var(--fill-0, black)"/>
<g id="Group_2">
<path id="Subtract" d="M260.443 113.607C281.269 100.691 271.629 152.719 276.176 154.72C285.908 152.629 314.191 157.54 321.648 154.72C323.012 154.173 325.832 145.443 331.379 142.805C356.206 130.981 368.938 166.909 349.75 176.369C329.56 186.374 325.376 164.999 320.556 163.362C318.464 162.634 278.269 162.453 276.176 163.362C274.812 189.831 272.72 190.013 248.621 196.926L248.438 197.016C215.79 206.294 167.863 209.387 133.759 208.932C133.305 205.658 136.67 206.84 138.671 206.749C142.491 206.658 162.953 206.84 164.68 205.658C165.226 205.292 166.226 194.56 167.408 192.65C198.238 191.195 229.341 186.557 258.806 177.461L257.17 118.519C257.189 118.488 260.171 113.788 260.443 113.607ZM342.019 165.635C349.476 163.998 346.93 150.719 337.654 153.72C332.197 155.54 333.107 167.546 342.019 165.635Z" fill="var(--fill-0, black)"/>
</g>
<path id="Vector_7" d="M35.2678 79.0431C33.1761 76.8601 34.4493 70.7659 36.3591 69.3105C39.3602 66.9456 79.739 77.9516 87.742 79.0431C121.937 83.591 163.952 82.9543 198.147 77.9516C205.15 76.9511 233.433 68.1281 237.071 69.3105C238.89 69.8563 239.799 71.6755 240.89 73.1308C243.619 82.6815 225.157 85.865 217.609 87.7751C169.773 99.6907 80.4665 99.054 35.2678 79.1341V79.0431Z" fill="var(--fill-0, black)"/>
</g>
</svg>
