<svg preserveAspectRatio="none" width="100%" height="100%" overflow="visible" style="display: block;" viewBox="0 0 268 113" fill="none" xmlns="http://www.w3.org/2000/svg">
<g id="Group">
<path id="Vector" d="M133.748 38.6674V112.68C90.5721 98.7449 48.5957 80.7493 5.97356 64.9686C3.85168 63.3998 1.08401 59.7084 0.622726 57.1244C-0.207575 52.787 -0.207575 14.4887 0.622726 10.2436C1.82205 4.15282 8.37221 0.922852 14.1843 0.830567L133.748 38.6674Z" fill="var(--fill-0, black)"/>
<g id="Group_2">
<path id="Vector_2" d="M133.748 112.68V38.6674L254.142 9.5149e-07C258.939 0.830566 265.766 4.24511 266.873 9.41306C267.519 12.2739 268.072 50.203 267.703 53.8021C267.15 58.4164 263.921 63.2152 259.861 65.7069C246.115 74.1048 159.948 106.22 142.328 110.927C139.468 111.665 136.7 112.772 133.656 112.588L133.748 112.68Z" fill="var(--fill-0, black)"/>
<path id="Vector_3" d="M211.796 51.8641H212.626C212.626 51.8641 212.165 53.6176 211.796 51.8641Z" fill="var(--fill-0, white)"/>
</g>
</g>
</svg>
