<svg preserveAspectRatio="none" width="100%" height="100%" overflow="visible" style="display: block;" viewBox="0 0 500 316" fill="none" xmlns="http://www.w3.org/2000/svg">
<g id="Generative Object">
<path id="Vector" d="M1.54391 304.221H498.399C495.964 311.694 484.473 314.227 476.534 316H22.6985C14.0743 314.303 5.75454 311.668 0.148818 304.576L1.54391 304.221Z" fill="var(--fill-0, black)"/>
<g id="Group">
<path id="Subtract" d="M441.124 0C447.11 1.87444 451.295 5.2433 453.274 11.4238V283.07L448.404 291.048C317.527 289.123 182.44 289.808 51.4878 291.733L45.9331 281.677V12.8174C47.6833 5.90211 51.7926 1.74782 58.7681 0H441.124ZM67.1128 18.0098L63.9937 21.126V272.001L66.4282 275.116L434.554 274.078L435.95 271.316V21.835L432.83 18.0098H67.1128Z" fill="var(--fill-0, black)"/>
<path id="Vector_2" d="M252.736 11.0948V7.62453C253.649 9.34701 253.852 9.34701 252.736 11.0948Z" fill="var(--fill-0, #F9FDFF)"/>
<path id="Vector_3" d="M252.051 6.9406L249.971 5.54741C250.529 5.49675 251.595 6.45932 252.051 6.9406Z" fill="var(--fill-0, #F9FDFF)"/>
<path id="Vector_4" d="M252.051 11.7788C251.24 12.3614 251.417 12.5893 249.971 12.4627L252.051 11.7788Z" fill="var(--fill-0, #F9FDFF)"/>
<path id="Vector_5" d="M247.206 11.0948C247.08 10.8922 246.522 11.2975 246.522 9.70164L247.206 11.0948Z" fill="var(--fill-0, #F9FDFF)"/>
</g>
<g id="Group_2">
<g id="Vector_6">
</g>
<path id="Vector_7" d="M187.167 293.126L313.105 294.849L308.59 300.042H191.301C188.359 298.598 185.721 296.977 187.142 293.101L187.167 293.126Z" fill="var(--fill-0, black)"/>
</g>
</g>
</svg>
