<svg preserveAspectRatio="none" width="100%" height="100%" overflow="visible" style="display: block;" viewBox="0 0 234 316" fill="none" xmlns="http://www.w3.org/2000/svg">
<path id="Subtract" d="M220.283 0C227.344 1.65816 232.051 6.3008 234 13.2646V303.214C232.014 310.03 227.197 314.342 220.283 316H13.7168C6.72976 314.305 1.61815 309.847 0 302.735V12.7861C2.0226 6.08007 6.84001 1.65817 13.7168 0H220.283ZM128.786 294.776C126.873 293.634 114.886 293.339 112.422 293.818C105.876 295.071 106.023 305.056 111.466 306.346C112.571 306.604 126.213 306.604 127.353 306.346C132.096 305.277 132.831 297.171 128.786 294.776ZM147.578 305.388C153.168 304.614 152.653 294.371 145.666 295.255C139.635 296.029 140.775 306.308 147.578 305.388ZM14.9307 284.386L218.37 285.122L219.069 19.5293L15.1514 19.3076L14.9307 284.386Z" fill="var(--fill-0, black)"/>
</svg>
