<svg preserveAspectRatio="none" width="100%" height="100%" overflow="visible" style="display: block;" viewBox="0 0 153 300" fill="none" xmlns="http://www.w3.org/2000/svg">
<g id="Group">
<path id="Vector" d="M152.762 98.066H151.753C151.68 81.064 151.969 64.0139 151.753 47.0359C153.267 46.8195 152.714 48.3826 152.762 49.2965C153.316 65.4808 152.762 81.8816 152.762 98.0901V98.066Z" fill="var(--fill-0, black)"/>
<path id="Vector_2" d="M152.762 98.066C152.762 110.787 153.123 123.629 152.762 136.351C152.738 137.264 153.267 138.828 151.753 138.611C151.729 125.12 151.801 111.581 151.753 98.0901H152.762V98.066Z" fill="var(--fill-0, black)"/>
<g id="Group_2">
<path id="Subtract" d="M28.9299 12.9834C33.5458 12.383 33.0892 20.221 28.425 18.9952C26.0686 18.3699 25.9483 13.3682 28.9299 12.9834Z" fill="var(--fill-0, #EBF1F1)"/>
<path id="Exclude" d="M19.4316 1.48845C54.177 -3.0566 99.6947 4.49431 135.498 1.99333C156.61 7.88511 151.561 30.0343 151.753 47.0363L151.788 50.2004C151.935 66.1422 151.685 82.103 151.753 98.0422C151.801 111.533 151.729 125.072 151.753 138.563C151.849 185.841 151.681 233.145 151.753 280.423C149.805 290.138 141.822 297.521 131.987 298.675C97.6269 302.787 55.1392 295.597 19.9131 298.675C11.2087 297.016 4.35525 291.701 1.15723 283.404C-1.15111 196.11 0.821096 108.262 0.171875 20.7511C1.73495 10.9637 9.453 2.78705 19.4316 1.48845ZM87.2148 276.936C86.1803 271.165 75.8409 270.851 71.4648 271.693L71.4404 271.669C69.7811 272.007 66.128 274.723 65.6943 276.43C62.5205 289.44 89.5945 290.065 87.2148 276.936ZM9.18848 30.2502V263.421L13.1797 264.671L143.265 98.547C143.217 75.5572 143.938 52.4708 142.52 29.5051L9.18848 30.2502ZM93.9717 13.9933C92.5006 12.9836 60.1899 12.9354 58.457 13.4885V13.5129C56.9903 13.9698 55.8843 16.5431 57.9521 17.5051C62.1604 16.8558 93.9714 18.8513 94.7168 16.2541C94.9572 15.4365 94.7411 14.4983 93.9717 13.9933Z" fill="var(--fill-0, black)"/>
</g>
<path id="Vector_3" d="M143.265 98.547C143.385 153.497 143.168 208.471 143.265 263.421L141.509 264.671H13.1798L143.265 98.547Z" fill="var(--fill-0, black)"/>
</g>
</svg>
