<svg preserveAspectRatio="none" width="100%" height="100%" overflow="visible" style="display: block;" viewBox="0 0 221 118" fill="none" xmlns="http://www.w3.org/2000/svg">
<g id="Group">
<path id="Subtract" d="M205.551 0.554687C210.826 -0.627776 217.829 -0.446064 219.648 6.4668C220.648 10.381 220.557 74.2312 219.648 78.9609C218.193 86.2375 208.553 94.2415 202.368 97.8799L202.278 98.0615C178.451 111.978 126.249 116.709 98.4202 117.527C97.9655 115.071 99.2385 104.429 97.8743 103.429C96.6917 102.61 73.7742 103.52 69.7728 103.429C67.8098 103.429 64.5359 104.479 64.8421 101.427C64.8488 101.427 64.8559 101.427 64.8626 101.428C94.6008 102.519 124.794 102.246 154.168 97.0615C164.9 95.1514 202.55 86.8737 205.551 74.8672C205.907 73.4076 206.123 64.8793 206.103 54.9756C206.075 39.5259 205.471 20.6323 203.914 20.0195C167.537 33.6633 126.431 38.2116 87.598 38.3936C93.0544 33.6638 90.235 27.7511 90.8714 21.1113C122.247 20.6565 154.168 17.1087 184.452 9.19531C190.909 7.4671 200.276 1.73726 205.551 0.554687Z" fill="var(--fill-0, black)"/>
<g id="Group_2">
<path id="Vector" d="M36.215 65.5897C41.6716 66.7722 70.2278 63.7706 68.1361 71.5021C66.4082 77.9601 22.1188 72.3207 36.215 65.5897Z" fill="var(--fill-0, black)"/>
<path id="Vector_2" d="M80.5953 66.6812C81.8685 66.2264 107.424 66.0445 108.697 66.6812L110.334 71.593C108.879 76.7777 84.9606 73.3212 79.504 74.3218C76.321 72.7755 78.0489 67.6818 80.5953 66.7722V66.6812Z" fill="var(--fill-0, black)"/>
<path id="Vector_3" d="M173.63 51.5821C187.726 48.0347 186.635 72.1388 172.539 67.7727C165.809 65.6807 167.264 53.1284 173.63 51.5821Z" fill="var(--fill-0, black)"/>
<path id="Vector_4" d="M3.7483 60.2232C5.11244 59.9503 31.0312 63.1339 28.1211 69.41C26.3931 73.0484 0.747173 69.1371 0.0196273 65.044C-0.253202 63.4977 2.38413 60.4961 3.83922 60.1322L3.7483 60.2232Z" fill="var(--fill-0, black)"/>
<path id="Vector_5" d="M147.62 58.0402C157.169 56.221 158.715 70.7744 150.894 72.1388C141.345 73.6851 140.345 59.4955 147.62 58.0402Z" fill="var(--fill-0, black)"/>
</g>
</g>
</svg>
