<svg preserveAspectRatio="none" width="100%" height="100%" overflow="visible" style="display: block;" viewBox="0 0 572 364" fill="none" xmlns="http://www.w3.org/2000/svg">
<g id="Group 1">
<path id="Vector" d="M427.04 141.09C415.519 116.606 398.309 96.0083 376.026 86.7007C331.972 66.4418 271.426 96.5093 265.418 145.315C261.213 175.967 277.114 208.345 300.344 228.581C301.837 240.55 302.607 274.99 300.098 282.043C279.3 274.753 261.696 260.809 248.179 243.725C198.583 177.403 207.096 88.8347 283.723 47.6736C358.691 9.04231 437.982 47.1232 470.585 121.083C483.534 150.365 440.864 169.961 427.115 141.051L427.04 141.09Z" fill="var(--fill-0, black)"/>
<path id="Vector_2" d="M392.704 242.917C337.771 172.684 290.175 75.3941 185.85 98.2299C150.821 103.673 141.177 52.8214 175.939 45.3076C309.311 19.7134 367.308 118.494 435.345 210.155C441.553 218.937 448.712 226.408 449.258 237.258C449.934 248.485 447.107 275.836 435.85 282.197C426.154 286.248 423.62 280.944 414.264 270.609C407.425 262.522 399.41 252.005 392.696 242.976L392.704 242.917Z" fill="var(--fill-0, black)"/>
<path id="Vector_3" d="M112.506 97.556C1.03771 162.255 61.5559 330.359 188.311 307.218C202.088 305.434 212.566 298.768 225.194 292.025C240.936 283.553 258.805 271.523 277.647 269.488C313.997 267.146 350.164 289.657 382.455 295.007C442.628 306.263 489.245 271.123 522.997 222.844C531.714 210.752 548.571 208.011 560.664 216.727C572.757 225.443 575.416 242.279 566.7 254.372C556.411 268.607 545.037 282.509 531.929 295.424C473.404 355.056 396.636 364.212 322.206 333.013C309.551 328.666 294.823 323.459 282.856 323.034C258.949 331.969 227.046 357.449 197.428 360.291C69.5537 385.174 -33.8229 259.432 10.3927 138.208C27.2228 92.9137 65.1331 57.1792 109.36 39.3909L133.202 86.9781C126.116 89.9036 118.916 93.5805 112.638 97.548L112.506 97.556Z" fill="var(--fill-0, black)"/>
</g>
</svg>
