<svg preserveAspectRatio="none" width="100%" height="100%" overflow="visible" style="display: block;" viewBox="0 0 59 56" fill="none" xmlns="http://www.w3.org/2000/svg">
<g id="Group 1">
<path id="Vector" d="M35.9923 45.784C38.02 47.996 40.5217 49.609 43.188 49.8591C48.5207 50.5504 53.9389 45.3692 52.9645 40.0037C52.3984 36.6198 49.6464 33.7164 46.5193 32.3405C45.9663 31.1225 44.7483 27.5016 44.7812 26.6721C47.2237 26.7577 49.5477 27.653 51.5425 29.0158C58.9819 34.4011 61.003 44.0591 54.2483 50.9454C47.5858 57.5092 37.9344 56.0937 32.0422 49.3391C29.705 46.6662 33.5761 43.1835 35.9857 45.7906L35.9923 45.784Z" fill="var(--fill-0, black)"/>
<path id="Vector_2" d="M31.5812 26.468C24.6554 33.5255 14.6485 40.1683 18.671 51.3075C19.777 55.0798 14.3259 56.8771 12.996 53.1641C8.2493 38.8713 18.2694 31.0633 27.3612 22.2546C28.2368 21.4448 28.9544 20.5495 30.1395 20.3322C31.364 20.0952 34.4121 20.0096 35.2746 21.1551C35.8605 22.1624 35.3141 22.5179 34.3134 23.6964C33.5234 24.5654 32.4832 25.599 31.5878 26.468H31.5812Z" fill="var(--fill-0, black)"/>
<path id="Vector_3" d="M43.0694 18.7522C43.0364 4.45941 23.5361 0.950415 18.7301 14.4071C18.1376 15.8291 18.1969 17.205 18.1442 18.7917C18.085 20.7733 18.2496 23.1565 17.4003 25.0789C15.6096 28.6998 11.4422 30.925 9.13798 33.7296C4.72045 38.8845 5.51047 45.31 8.27554 51.2285C8.95364 52.7361 8.28212 54.5071 6.7745 55.1852C5.26688 55.8633 3.5025 55.1852 2.8244 53.6776C2.02779 51.9 1.32336 50.0369 0.809842 48.0619C-1.67214 39.1346 1.7052 31.2542 8.82855 25.836C9.94775 24.8616 11.2645 23.7359 11.9689 22.6101C12.4363 19.8187 11.7582 15.3419 13.1276 12.3398C17.8282 -1.32089 35.6366 -4.27687 44.8272 6.69122C48.244 10.8191 49.5739 16.4414 48.8299 21.6752L42.9377 21.3263C43.0496 20.4836 43.0957 19.5883 43.0628 18.7653L43.0694 18.7522Z" fill="var(--fill-0, black)"/>
</g>
</svg>
