<svg preserveAspectRatio="none" width="100%" height="100%" overflow="visible" style="display: block;" viewBox="0 0 118 18" fill="none" xmlns="http://www.w3.org/2000/svg">
<g id="Group">
<path id="Vector" d="M103.858 0.224885C106.393 -0.308378 106.406 3.0492 104.852 3.54296C102.587 4.26715 101.613 0.698896 103.858 0.224885Z" fill="var(--fill-0, black)"/>
<g id="Group_2">
<path id="Vector_2" d="M66.365 1.54816C66.8127 1.22557 68.531 1.59425 69.1827 2.04851C70.427 2.90436 74.4956 10.8901 75.9835 12.4965C77.2409 9.82361 73.936 0.0537129 78.4721 1.71275L77.9717 16.8087C77.0303 16.8679 76.2929 16.8679 75.4832 16.3083C74.2125 15.4327 70.0452 7.25605 68.6824 5.52459C67.4513 8.27649 70.6772 17.6909 66.1938 16.6375C66.4835 14.7876 65.7462 1.98267 66.3584 1.54158L66.365 1.54816Z" fill="var(--fill-0, black)"/>
<path id="Vector_3" d="M13.9471 5.19541C14.0591 5.11641 16.2711 5.13616 16.4357 5.36C16.653 7.72347 15.1058 16.8153 19.9184 14.149C22.2819 12.8388 20.3397 7.35479 21.0771 5.68917C21.4063 4.94524 23.7302 4.94524 24.066 5.68917C24.4742 6.60428 24.2372 16.4861 23.2365 16.8021C21.3865 17.388 21.4063 15.2616 21.2482 15.1431C20.9586 14.9258 17.6734 18.6718 14.7767 15.9726C13.506 14.7875 13.4863 5.518 13.9471 5.18883V5.19541Z" fill="var(--fill-0, black)"/>
<path id="Vector_4" d="M112.812 4.86625C118.394 4.728 117.92 8.98752 111.817 7.19022L111.317 8.68468C111.712 10.0409 118.184 9.64587 117.288 13.991C116.551 17.5658 108.881 17.2432 108.328 15.65C107.058 11.9633 115.004 16.8943 114.629 13.326C114.49 12.0159 109.902 11.9896 108.987 10.008C107.591 6.97955 109.882 4.93867 112.805 4.86625H112.812Z" fill="var(--fill-0, black)"/>
<path id="Vector_5" d="M58.0698 4.86625C59.3733 4.91233 59.7223 5.73527 59.2285 7.02563C58.7347 8.31599 56.7531 7.27581 55.9104 8.68467C55.0677 10.0935 56.8584 18.8627 53.0927 16.8153C52.5067 16.4993 52.329 6.30803 52.5923 5.70235C53.5206 3.59563 55.5549 6.5582 55.7458 6.53187C55.8973 6.51212 56.4305 4.81358 58.0698 4.87283V4.86625Z" fill="var(--fill-0, black)"/>
<path id="Vector_6" d="M99.5392 4.86625C100.191 4.86625 100.606 4.73458 101.034 5.36659C101.429 8.90193 98.4134 6.92688 97.3864 8.3555C96.649 9.37594 97.2152 14.6756 96.7215 16.3149C96.0631 17.263 94.3909 16.835 94.0683 15.9858C93.8774 15.492 93.7589 5.8011 94.0683 5.36659C94.6016 4.61608 97.4852 5.10325 96.5569 7.19022C97.4457 6.22903 98.0316 4.87941 99.5458 4.86625H99.5392Z" fill="var(--fill-0, black)"/>
<path id="Vector_7" d="M103.193 5.19541C103.305 5.11641 105.517 5.13616 105.682 5.36C105.326 7.28896 106.491 16.2293 104.852 16.8087C104.595 16.9009 103.187 16.8679 103.029 16.6441C102.699 16.1767 102.726 5.53117 103.193 5.19541Z" fill="var(--fill-0, black)"/>
<g id="Group_3">
<path id="Subtract" d="M0.345843 1.54796C3.28219 1.54793 9.81238 0.870578 11.129 4.36632C12.6429 8.40177 8.25945 9.8565 8.4767 11.3312C8.52977 11.7002 12.9329 16.1763 11.2941 16.8019C7.80483 18.1383 6.74444 11.6738 5.32241 11.1603C0.859384 9.54771 4.15045 16.0442 2.00502 16.8019C1.74831 16.894 0.339204 16.8615 0.180804 16.6378C-0.19939 16.0963 0.111605 6.41123 0.283343 2.71496L0.345843 1.54796ZM6.64565 8.84972C10.6417 7.68447 7.46261 2.04897 2.99916 3.87218C2.47908 7.34814 2.15619 10.1595 6.64565 8.84972Z" fill="var(--fill-0, black)"/>
</g>
<g id="Group_4">
<path id="Subtract_2" d="M27.5486 0.224942C30.7677 -1.20357 29.6557 4.56245 29.8728 6.52475C40.1295 -0.518871 41.2356 19.1127 31.8611 16.8089C31.1765 16.6378 29.9918 15.1045 29.8728 15.1497C29.695 15.2222 28.1078 18.7043 27.0544 16.308C26.7321 15.5651 26.8182 0.547215 27.5554 0.218106L27.5486 0.224942ZM31.2029 14.4915C35.8307 16.9727 37.7199 6.68339 32.197 7.18979C29.0172 7.48604 29.1949 13.4184 31.2029 14.4915Z" fill="var(--fill-0, black)"/>
</g>
<g id="Group_5">
<path id="Subtract_3" d="M44.7973 4.8658C46.9238 4.72096 49.636 6.12398 50.268 8.3492C51.8742 13.9777 46.055 11.0347 42.6381 11.9957C43.3162 16.6765 48.4119 13.6555 49.4389 14.1558C50.9988 14.913 48.4842 16.5985 47.4506 16.8092C38.1877 18.7249 37.7596 5.33331 44.7973 4.8658ZM43.145 9.84334C49.7416 11.2588 47.9575 5.95241 44.1391 7.19002C43.1121 7.51919 42.6578 8.92165 43.145 9.84334Z" fill="var(--fill-0, black)"/>
</g>
<g id="Group_6">
<path id="Subtract_4" d="M85.9376 4.86649C87.4057 4.84676 90.309 5.72868 90.7501 7.35477C90.9147 7.96704 91.0196 16.5982 90.5851 16.8089C88.9075 17.6242 88.4069 15.5401 88.2618 15.4788C87.8602 15.3274 82.0276 19.2245 81.1319 14.3206C80.0259 8.2837 87.5368 10.5871 88.0968 9.34306C89.2621 6.76233 83.7848 6.82189 82.6261 7.84891L81.797 6.3538C81.9169 5.76786 85.4179 4.86624 85.9444 4.85966L85.9376 4.86649ZM88.0968 11.6673C87.9322 11.4435 85.6421 11.4035 85.2794 11.5022H85.2726C85.1145 11.5484 84.5422 11.9756 84.1144 12.0022C83.8181 13.1807 83.5873 13.9055 84.6144 14.8206C86.1483 15.4525 88.5376 13.3065 88.0968 11.6673Z" fill="var(--fill-0, black)"/>
</g>
</g>
</g>
</svg>
