<svg preserveAspectRatio="none" width="100%" height="100%" overflow="visible" style="display: block;" viewBox="0 0 485 120" fill="none" xmlns="http://www.w3.org/2000/svg">
<g id="Group">
<g id="Vector">
</g>
<g id="Vector_2">
</g>
<path id="Vector_3" d="M241.392 76.4984C241.392 76.4984 236.39 76.2255 238.118 70.5861C239.482 69.6765 240.846 69.3127 242.483 68.9488C246.939 68.0392 272.312 65.9472 269.493 73.8606C267.856 78.6814 246.485 75.7707 241.392 76.5894V76.4984Z" fill="var(--fill-0, black)"/>
<g id="Group_2">
<path id="Vector_4" d="M252.214 41.8431C248.94 42.2979 245.575 40.9336 242.483 43.4804V68.9488C240.937 69.3127 239.482 69.5855 238.118 70.5861C236.299 76.2255 241.301 76.1346 241.392 76.4984C243.847 85.1395 241.847 94.6901 242.483 103.513C215.746 103.604 147.266 100.784 127.258 82.9565C113.889 70.9499 122.802 38.8415 120.255 21.8322L171.638 35.385C183.643 35.8398 195.465 38.7506 207.379 39.7511C222.112 40.9336 238.3 39.2963 252.305 41.9341L252.214 41.8431Z" fill="var(--fill-0, black)"/>
<path id="Vector_5" d="M196.557 67.7664C203.196 65.5834 218.11 70.4951 225.75 68.8579C237.754 83.4112 180.005 73.2239 196.557 67.7664Z" fill="var(--fill-0, black)"/>
<path id="Vector_6" d="M162.999 62.3998C164.181 62.1269 186.826 66.1291 187.372 67.3116C193.738 80.2277 147.266 66.493 162.999 62.3998Z" fill="var(--fill-0, black)"/>
</g>
<g id="Group_3">
<path id="Subtract" d="M351.615 8.18788C358.799 5.91391 370.713 -5.0913 377.079 2.82167L376.715 2.91249C381.535 8.91577 377.806 45.6635 380.535 55.9418C391.448 56.3966 441.103 73.0414 447.651 71.1312C451.47 70.0394 454.654 54.6689 472.569 60.308C505.49 70.7683 464.203 125.707 445.559 79.7728L380.626 64.5824C379.989 74.406 378.08 83.5935 371.441 91.0521C337.792 129.073 160.634 126.435 120.983 96.9643C110.888 89.5057 105.068 78.0447 104.795 65.5834L38.7701 79.682C33.6772 106.969 -4.24544 99.238 0.392179 73.7699C3.57516 56.306 31.0395 53.9407 36.6783 71.0404L103.795 56.9418C109.888 52.8485 98.5203 4.00503 112.434 0.639055C117.618 -0.634365 130.168 6.27774 136.807 8.18788C203.105 28.1078 285.135 29.2903 351.615 8.18788ZM364.165 21.1957C328.697 37.568 289.865 36.3859 252.214 41.7523C248.941 42.2071 245.575 40.8423 242.483 43.3891V68.8578C246.848 67.9482 272.221 65.8565 269.493 73.7699C267.855 78.5901 246.486 75.68 241.392 76.4984C243.848 85.1394 241.846 94.6901 242.483 103.513V103.422C269.038 103.331 337.61 100.421 357.709 82.8656C370.713 71.4957 362.801 37.7502 364.165 21.1957Z" fill="var(--fill-0, black)"/>
<path id="Vector_7" d="M332.881 52.6672C347.522 48.5741 345.795 73.4967 331.789 68.8579C325.787 66.8568 327.242 54.2135 332.881 52.6672Z" fill="var(--fill-0, black)"/>
<path id="Vector_8" d="M307.962 59.1253C318.784 57.8519 317.057 76.7713 305.78 73.2239C299.505 71.2228 301.687 59.853 307.962 59.1253Z" fill="var(--fill-0, black)"/>
</g>
</g>
</svg>
