<svg preserveAspectRatio="none" width="100%" height="100%" overflow="visible" style="display: block;" viewBox="0 0 118 18" fill="none" xmlns="http://www.w3.org/2000/svg">
<g id="Group">
<path id="Vector" d="M103.858 0.224552C106.393 -0.308711 106.406 3.04887 104.852 3.54263C102.587 4.26681 101.613 0.698563 103.858 0.224552Z" fill="var(--fill-0, black)"/>
<g id="Group_2">
<path id="Vector_2" d="M66.365 1.54783C66.8127 1.22524 68.531 1.59392 69.1827 2.04818C70.427 2.90403 74.4956 10.8898 75.9835 12.4962C77.2409 9.82327 73.936 0.0533801 78.4721 1.71242L77.9717 16.8084C77.0303 16.8676 76.2929 16.8676 75.4832 16.308C74.2125 15.4324 70.0452 7.25572 68.6824 5.52426C67.4513 8.27616 70.6772 17.6905 66.1938 16.6372C66.4835 14.7872 65.7462 1.98234 66.3584 1.54125L66.365 1.54783Z" fill="var(--fill-0, black)"/>
<path id="Vector_3" d="M13.9471 5.19508C14.0591 5.11608 16.2711 5.13583 16.4357 5.35967C16.653 7.72314 15.1058 16.8149 19.9184 14.1486C22.2819 12.8385 20.3397 7.35446 21.0771 5.68884C21.4063 4.94491 23.7302 4.94491 24.066 5.68884C24.4742 6.60394 24.2372 16.4858 23.2365 16.8018C21.3865 17.3877 21.4063 15.2612 21.2482 15.1427C20.9586 14.9255 17.6734 18.6715 14.7767 15.9722C13.506 14.7872 13.4863 5.51767 13.9471 5.18849V5.19508Z" fill="var(--fill-0, black)"/>
<path id="Vector_4" d="M112.812 4.86592C118.394 4.72767 117.92 8.98718 111.817 7.18989L111.317 8.68435C111.712 10.0405 118.184 9.64553 117.288 13.9906C116.551 17.5655 108.881 17.2429 108.328 15.6497C107.058 11.9629 115.004 16.894 114.629 13.3257C114.49 12.0156 109.902 11.9893 108.987 10.0076C107.591 6.97922 109.882 4.93834 112.805 4.86592H112.812Z" fill="var(--fill-0, black)"/>
<path id="Vector_5" d="M58.0698 4.86591C59.3733 4.912 59.7223 5.73493 59.2285 7.0253C58.7347 8.31566 56.7531 7.27547 55.9104 8.68434C55.0677 10.0932 56.8584 18.8624 53.0927 16.8149C52.5067 16.4989 52.329 6.3077 52.5923 5.70202C53.5206 3.5953 55.5549 6.55787 55.7458 6.53154C55.8973 6.51179 56.4305 4.81325 58.0698 4.8725V4.86591Z" fill="var(--fill-0, black)"/>
<path id="Vector_6" d="M99.5392 4.86591C100.191 4.86591 100.606 4.73425 101.034 5.36626C101.429 8.90159 98.4134 6.92655 97.3864 8.35516C96.649 9.37561 97.2152 14.6753 96.7215 16.3146C96.0631 17.2626 94.3909 16.8347 94.0683 15.9854C93.8774 15.4917 93.7589 5.80077 94.0683 5.36626C94.6016 4.61574 97.4852 5.10292 96.5569 7.18988C97.4457 6.2287 98.0316 4.87908 99.5458 4.86591H99.5392Z" fill="var(--fill-0, black)"/>
<path id="Vector_7" d="M103.193 5.19508C103.305 5.11607 105.517 5.13583 105.682 5.35966C105.326 7.28863 106.491 16.229 104.852 16.8083C104.595 16.9005 103.187 16.8676 103.029 16.6438C102.699 16.1763 102.726 5.53083 103.193 5.19508Z" fill="var(--fill-0, black)"/>
<g id="Group_3">
<path id="Subtract" d="M0.345843 1.54763C3.28219 1.5476 9.81238 0.870246 11.129 4.36599C12.6429 8.40144 8.25945 9.85617 8.4767 11.3308C8.52977 11.6999 12.9329 16.1759 11.2941 16.8015C7.80483 18.138 6.74444 11.6734 5.32241 11.1599C0.859384 9.54737 4.15045 16.0438 2.00502 16.8015C1.74831 16.8937 0.339204 16.8612 0.180804 16.6375C-0.19939 16.096 0.111605 6.4109 0.283343 2.71462L0.345843 1.54763ZM6.64565 8.84939C10.6417 7.68414 7.46261 2.04864 2.99916 3.87185C2.47908 7.34781 2.15619 10.1592 6.64565 8.84939Z" fill="var(--fill-0, black)"/>
</g>
<g id="Group_4">
<path id="Subtract_2" d="M27.5482 0.224952C30.7675 -1.20363 29.6553 4.56275 29.8725 6.52476C40.1296 -0.519576 41.2357 19.1122 31.8607 16.808C31.1761 16.6366 29.9911 15.1029 29.8725 15.1488C29.6947 15.2212 28.1084 18.7042 27.0551 16.308C26.7325 15.5707 26.8179 0.549956 27.5551 0.218116L27.5482 0.224952ZM31.2025 14.4906C35.8307 16.9725 37.7202 6.68292 32.1967 7.1898C29.0169 7.48605 29.1947 13.4172 31.2025 14.4906Z" fill="var(--fill-0, black)"/>
</g>
<g id="Group_5">
<path id="Subtract_3" d="M44.7973 4.86594C46.9237 4.72111 49.6359 6.1233 50.268 8.34836C51.8744 13.9772 46.055 11.0347 42.6381 11.9958C43.3163 16.6767 48.4119 13.6547 49.4389 14.155C50.9991 14.9121 48.4843 16.5976 47.4506 16.8083C38.1877 18.7241 37.7597 5.3335 44.7973 4.86594ZM43.145 9.84348C49.7416 11.2589 47.9575 5.95247 44.1391 7.19016C43.1121 7.51938 42.6578 8.92182 43.145 9.84348Z" fill="var(--fill-0, black)"/>
</g>
<g id="Group_6">
<path id="Subtract_4" d="M85.9373 4.86616C87.4053 4.84641 90.3086 5.72839 90.7498 7.35444C90.9143 7.96668 91.0201 16.5972 90.5857 16.8085C88.9069 17.6249 88.4063 15.5377 88.2615 15.4785C87.8592 15.3276 82.0272 19.224 81.1316 14.3203C80.0256 8.2832 87.5378 10.587 88.0974 9.34272C89.2624 6.76213 83.7844 6.82158 82.6257 7.84858L81.7966 6.35346C81.9163 5.76755 85.4173 4.86598 85.9441 4.85932L85.9373 4.86616ZM88.0974 11.6669C87.9328 11.4431 85.6411 11.4031 85.2791 11.5019H85.2722C85.1137 11.5485 84.5416 11.9755 84.114 12.0019C83.8178 13.1803 83.5871 13.9052 84.614 14.8203C86.1478 15.4522 88.538 13.3062 88.0974 11.6669Z" fill="var(--fill-0, black)"/>
</g>
</g>
</g>
</svg>
