<svg width="500" height="500" viewBox="0 0 500 500" fill="none" xmlns="http://www.w3.org/2000/svg">
<path d="M346.336 483.809C345.426 482.9 345.335 480.717 345.245 480.535C348.518 481.717 346.7 482.354 346.336 483.809Z" fill="black"/>
<path d="M179.728 493.542L180.819 482.718C213.923 486.629 248.572 486.902 281.948 485.992C289.133 485.81 321.508 478.807 323.6 486.538C324.691 490.449 321.326 494.451 317.689 495.725C296.044 503.093 202.009 500 179.728 493.542Z" fill="black"/>
<path d="M119.705 465.345C121.07 464.981 145.806 472.985 146.716 473.986C150.99 478.443 148.08 485.72 141.35 485.901C138.258 485.901 112.976 477.897 114.885 471.257C114.885 470.438 118.978 465.527 119.796 465.345H119.705Z" fill="black"/>
<path d="M377.166 467.528C379.621 467.346 381.076 467.892 383.077 469.165C388.352 477.624 358.795 484.628 356.612 483.809C342.971 478.625 373.892 467.801 377.166 467.619V467.528Z" fill="black"/>
<path d="M180.819 482.718L179.728 493.542C176.181 492.541 170.634 494.088 168.906 489.176C167.996 486.538 170.634 485.174 168.906 481.626C172.816 479.08 177.091 482.263 180.819 482.718Z" fill="black"/>
<path d="M168.906 481.626C170.634 485.174 167.996 486.629 168.906 489.176C148.534 497.362 162.358 467.71 168.906 481.626Z" fill="black"/>
<path d="M345.245 480.535C345.245 480.535 345.426 482.9 346.336 483.809C342.698 496.362 331.148 489.358 334.422 481.081C335.877 477.26 342.516 477.533 345.245 480.535Z" fill="black"/>
<path d="M45.5867 305.258C45.5867 305.258 45.4048 303.984 46.678 304.166L45.5867 305.258Z" fill="#FBFDFE"/>
<path d="M44.4954 306.349C44.9501 305.712 44.9501 305.712 45.5867 305.257C45.5867 305.257 45.7686 306.531 44.4954 306.349Z" fill="#FBFDFE"/>
<path d="M113.704 216.027C121.434 204.839 132.074 213.571 142.896 216.572V216.481C182.911 227.487 215.469 232.309 257.576 231.672C256.939 238.312 259.758 244.224 254.301 248.954C211.194 249.227 168.724 243.769 127.708 231.126C130.437 247.408 121.161 282.882 134.711 293.342C152.536 307.076 208.648 310.806 231.566 311.716C231.111 314.99 234.475 313.808 236.476 313.898C240.477 313.989 263.483 313.08 264.578 313.898C265.942 314.899 264.669 325.541 265.123 327.997C230.383 329.089 182.456 326.541 149.353 316.081C137.348 312.261 123.616 306.53 116.34 295.524L46.5873 304.166C45.3141 303.984 45.5864 305.167 45.4955 305.258C44.8594 305.712 44.8591 305.621 44.4047 306.349C44.2228 306.621 43.4951 311.806 42.2221 313.353C32.4912 325.541 11.4828 322.813 8.66347 307.986C4.11631 283.973 34.7649 275.15 44.9506 296.616L112.066 287.976L113.704 216.027ZM28.8529 308.532C35.3098 306.895 33.0366 295.525 25.5795 296.616C18.486 297.708 20.0317 310.715 28.8529 308.532Z" fill="black"/>
<path d="M447.465 284.701C480.932 277.516 477.658 331.907 445.282 320.447C441.827 319.174 438.916 313.08 434.46 312.898C424.729 312.534 396.355 325.722 385.26 324.813V324.722C377.805 324.086 381.256 319.632 380.895 319.356C391.808 310.897 424.001 311.352 433.368 305.258C434.914 304.257 435.551 287.248 447.465 284.701ZM454.013 309.624C461.47 308.623 460.106 295.07 451.83 296.616C444.737 297.98 446.01 310.715 454.013 309.624Z" fill="black"/>
<path d="M248.936 400.491C248.936 400.491 243.934 400.219 245.662 394.579C247.026 393.669 248.39 393.306 250.027 392.942C254.483 392.032 279.856 389.94 277.037 397.854C275.4 402.674 254.028 399.764 248.936 400.582V400.491Z" fill="black"/>
<path d="M259.758 365.836C256.484 366.291 253.119 364.927 250.027 367.473V392.942C248.481 393.306 247.026 393.579 245.662 394.579C243.843 400.219 248.845 400.128 248.936 400.491C251.391 409.132 249.39 418.683 250.027 427.506C223.29 427.597 154.809 424.777 134.802 406.949C121.433 394.943 130.346 362.834 127.799 345.825L179.182 359.378C191.187 359.833 203.009 362.744 214.923 363.744C229.656 364.927 245.844 363.289 259.849 365.927L259.758 365.836Z" fill="black"/>
<path d="M204.101 391.759C210.74 389.576 225.654 394.488 233.293 392.851C245.298 407.404 187.549 397.217 204.101 391.759Z" fill="black"/>
<path d="M170.543 386.393C171.725 386.12 194.37 390.122 194.915 391.304C201.281 404.221 154.809 390.486 170.543 386.393Z" fill="black"/>
<path d="M359.159 332.181C366.343 329.907 378.257 318.902 384.623 326.815L384.259 326.906C389.079 332.909 385.35 369.656 388.079 379.935C398.992 380.39 448.647 397.034 455.195 395.124C459.014 394.032 462.198 378.662 480.113 384.301C513.034 394.761 471.746 449.7 453.103 403.766L388.169 388.575C387.533 398.399 385.624 407.587 378.985 415.045C345.336 453.066 168.178 450.428 128.527 420.957C118.432 413.499 112.612 402.038 112.339 389.576L46.314 403.675C41.2211 430.962 3.29844 423.231 7.93607 397.763C11.1191 380.299 38.5834 377.934 44.2222 395.033L111.338 380.935C117.431 376.842 106.064 327.998 119.978 324.632C125.162 323.359 137.712 330.271 144.351 332.181C210.649 352.101 292.679 353.283 359.159 332.181ZM371.709 345.189C336.241 361.561 297.409 360.379 259.758 365.745C256.484 366.2 253.119 364.835 250.027 367.382V392.851C254.392 391.941 279.765 389.85 277.037 397.763C275.399 402.583 254.029 399.673 248.936 400.491C251.391 409.132 249.39 418.683 250.027 427.506V427.415C276.582 427.324 345.154 424.414 365.252 406.859C378.257 395.489 370.344 361.743 371.709 345.189Z" fill="black"/>
<path d="M340.425 376.66C355.066 372.567 353.338 397.49 339.333 392.851C333.331 390.85 334.786 378.206 340.425 376.66Z" fill="black"/>
<path d="M315.506 383.118C326.328 381.845 324.6 400.764 313.323 397.217C307.048 395.216 309.231 383.846 315.506 383.118Z" fill="black"/>
<path d="M372.346 210.933C377.621 209.751 384.623 209.933 386.442 216.845C387.442 220.757 387.351 284.61 386.442 289.34C384.986 296.616 375.346 304.62 369.162 308.259L369.072 308.441C345.244 322.358 293.043 327.087 265.214 327.906C264.759 325.45 266.033 314.809 264.669 313.807C263.487 312.989 240.57 313.898 236.568 313.807C234.605 313.807 231.331 314.858 231.637 311.805C231.643 311.806 231.65 311.806 231.657 311.806C261.395 312.898 291.589 312.625 320.963 307.44C331.695 305.53 369.344 297.253 372.346 285.247C372.702 283.788 372.917 275.259 372.897 265.354C372.869 249.904 372.265 231.01 370.708 230.398C334.331 244.042 293.224 248.59 254.392 248.772C259.848 244.042 257.03 238.13 257.666 231.49C289.042 231.035 320.962 227.487 351.246 219.574C357.703 217.846 367.071 212.116 372.346 210.933Z" fill="black"/>
<path d="M203.009 275.969C208.466 277.151 237.022 274.15 234.93 281.881C233.202 288.339 188.913 282.7 203.009 275.969Z" fill="black"/>
<path d="M247.39 277.06C248.663 276.606 274.218 276.424 275.491 277.06L277.128 281.972C275.673 287.157 251.755 283.7 246.298 284.701C243.115 283.155 244.843 278.061 247.39 277.151V277.06Z" fill="black"/>
<path d="M340.425 261.961C354.521 258.414 353.429 282.518 339.333 278.152C332.603 276.06 334.058 263.507 340.425 261.961Z" fill="black"/>
<path d="M170.543 270.602C171.907 270.329 197.826 273.513 194.915 279.789C193.187 283.427 167.542 279.516 166.814 275.423C166.541 273.877 169.178 270.875 170.634 270.511L170.543 270.602Z" fill="black"/>
<path d="M314.415 268.419C323.964 266.6 325.51 281.153 317.689 282.518C308.14 284.064 307.139 269.874 314.415 268.419Z" fill="black"/>
<path d="M64.5032 180.735C82.6916 179.098 87.7842 207.022 72.0511 211.024C47.4056 217.209 44.7686 182.463 64.5032 180.735ZM66.6859 203.565C74.6885 203.019 74.9611 187.011 63.4114 190.558C56.5908 192.741 60.6836 204.02 66.6859 203.565Z" fill="black"/>
<path d="M244.661 0L245.207 14.0986C243.206 15.5539 225.654 9.00491 224.108 16.2816C197.098 18.1917 132.983 24.0131 128.891 58.4864C128.527 61.8519 128.709 66.9456 128.891 70.402C129.163 76.3143 128.254 81.59 131.073 87.1384C141.35 107.513 213.65 114.972 234.93 115.79L235.476 129.889C233.203 131.617 207.738 123.977 204.646 128.798C182.274 126.342 146.716 120.247 128.891 106.058C112.339 92.8688 110.702 72.767 113.703 52.4832C120.524 6.91286 209.375 0.545752 244.661 0Z" fill="black"/>
<path d="M367.98 108.241C348.609 121.703 309.231 127.979 285.768 129.889C281.221 125.887 276.31 128.797 271.126 128.797C269.034 123.34 273.945 117.246 266.215 115.79C287.768 114.972 365.707 108.241 371.163 81.6809C382.804 25.0136 317.052 19.0103 275.946 16.1906C285.95 14.1895 287.132 10.5512 282.403 1.00049C313.505 3.54733 377.256 13.189 385.169 50.2091C389.716 71.5844 386.715 94.9608 367.889 108.15L367.98 108.241Z" fill="black"/>
<path d="M126.708 112.607C133.893 115.881 129.163 129.434 128.891 137.53C128.618 145.625 125.344 169.365 130.528 174.368C142.532 185.92 213.65 191.013 231.656 191.65C247.481 192.287 263.396 193.469 279.22 192.742C278.037 194.652 277.037 205.385 276.491 205.749C274.764 206.931 254.301 206.658 250.482 206.84C248.481 206.84 245.116 205.749 245.571 209.023C217.651 208.659 182.911 205.749 155.81 199.291C147.534 197.289 116.25 188.194 113.612 180.371C111.975 175.641 111.521 128.889 112.521 122.976C113.703 116.245 119.524 109.514 126.617 112.698L126.708 112.607Z" fill="black"/>
<path d="M282.494 1.1825C287.223 10.7332 286.04 14.2806 276.037 16.3726C258.394 15.1901 241.751 15.1901 224.108 16.3726C225.654 9.09591 243.206 15.6449 245.207 14.1896L244.661 0.0909991C257.211 -0.0909183 270.034 0.0909991 282.494 1.1825Z" fill="black"/>
<path d="M231.656 162.361C211.831 161.452 186.276 158.268 167.269 152.629C159.357 150.264 134.529 143.806 140.804 133.164C142.623 132.072 143.078 128.707 147.807 128.798C150.717 128.888 167.451 137.257 172.725 138.53C215.378 149.172 271.399 150.991 314.506 141.805C321.235 140.349 351.429 128.616 353.429 128.798C360.068 129.616 361.432 139.258 355.612 143.988C336.878 159.269 256.484 163.453 231.747 162.361H231.656Z" fill="black"/>
<path d="M266.306 115.881C273.945 117.337 269.125 123.431 271.217 128.888C276.31 128.888 281.311 125.978 285.859 129.98C259.303 132.163 231.111 131.799 204.737 128.888C207.829 124.068 233.293 131.617 235.567 129.98L235.021 115.881C245.025 116.245 256.393 116.245 266.397 115.881H266.306Z" fill="black"/>
<path d="M372.436 113.607C393.262 100.691 383.623 152.719 388.17 154.72C397.901 152.629 426.184 157.54 433.642 154.72C435.006 154.173 437.825 145.443 443.372 142.805C468.199 130.981 480.932 166.909 461.743 176.369C441.554 186.374 437.37 164.999 432.55 163.362C430.457 162.634 390.262 162.453 388.17 163.362C386.806 189.831 384.714 190.013 360.614 196.926L360.432 197.016C327.783 206.294 279.856 209.387 245.753 208.932C245.298 205.658 248.663 206.84 250.664 206.749C254.485 206.658 274.946 206.84 276.674 205.658C277.219 205.292 278.219 194.56 279.401 192.65C310.231 191.195 341.334 186.557 370.8 177.461L369.163 118.519C369.183 118.488 372.165 113.788 372.436 113.607ZM454.013 165.635C461.47 163.998 458.924 150.719 449.647 153.72C444.191 155.54 445.1 167.546 454.013 165.635Z" fill="black"/>
<path d="M147.261 79.0431C145.169 76.8601 146.443 70.7659 148.353 69.3105C151.354 66.9456 191.732 77.9516 199.735 79.0431C233.93 83.5911 275.946 82.9544 310.14 77.9516C317.143 76.9511 345.426 68.1281 349.064 69.3105C350.883 69.8563 351.792 71.6755 352.884 73.1308C355.612 82.6815 337.151 85.865 329.602 87.7752C281.766 99.6908 192.46 99.054 147.261 79.1341V79.0431Z" fill="black"/>
</svg>
